<svg width="284" height="397" viewBox="0 0 284 397" fill="none" xmlns="http://www.w3.org/2000/svg">
<path d="M175.914 270.607L178.005 270.004C177.698 266.713 177.392 263.723 177.383 260.134C177.375 256.544 177.368 253.553 177.958 250.261L175.865 249.668C163.605 247.005 155.537 247.323 151.361 250.623C148.974 252.423 147.787 255.717 147.797 259.904C147.807 264.092 149.009 267.38 151.405 269.17C155.596 272.45 163.666 272.73 175.913 270.009L175.914 270.607ZM177.045 243.383L179.137 243.378C180.318 237.094 182.395 230.807 185.071 225.117L183.275 224.224C172.502 217.967 164.726 215.593 159.65 217.4C156.664 218.603 154.578 221.001 153.393 225.192C152.207 229.383 152.214 232.674 154.014 235.361C157.013 239.841 164.491 242.516 177.045 243.682L177.045 243.383ZM185.237 295.413C182.534 289.436 180.427 283.16 179.216 276.881L177.124 276.886C164.576 278.411 157.111 281.121 154.133 285.615C152.346 288.311 152.354 291.601 153.56 295.787C155.064 299.971 156.862 302.36 159.854 303.55C164.938 305.332 172.405 303.22 183.447 296.614L185.237 295.413ZM186.249 217.636L188.044 218.529C191.299 212.884 195.089 207.566 199.362 202.648L197.865 201.156C189.474 191.604 183.188 187.431 177.51 187.445C174.521 187.452 171.538 189.254 169.155 192.848C166.474 196.445 165.884 199.437 166.488 202.427C167.995 207.509 174.283 212.579 185.65 217.338L186.249 217.636ZM202.935 196.358L204.432 197.85C209.203 193.352 214.573 189.451 220.244 186.445L219.344 184.654C214.235 172.999 209.438 166.729 204.355 165.245C201.364 164.355 198.079 165.26 194.798 167.96C191.218 170.66 189.431 173.357 189.438 176.348C189.451 181.732 193.65 188.303 203.233 196.657L202.935 196.358ZM337.969 302.23L336.173 301.337C334.686 304.033 332.899 306.729 331.112 309.425C331.112 309.425 331.112 309.725 330.815 310.025C329.027 312.422 327.538 314.52 325.451 316.619C325.451 316.619 325.153 317.217 324.855 317.517L326.353 319.01C334.444 328.264 341.03 332.735 346.11 332.723L346.409 332.722C349.398 332.715 352.381 330.913 354.764 327.317C357.445 323.722 358.035 320.729 357.431 317.739C355.924 312.658 349.636 307.587 338.269 302.828L337.969 302.23ZM325.775 200.854L324.582 202.351C324.582 202.351 324.882 202.95 325.182 203.248C326.98 205.338 328.778 207.428 330.578 209.816C330.578 209.816 330.578 210.115 330.877 210.414C332.678 213.101 334.476 215.49 335.977 218.478L337.768 217.576C349.411 212.464 355.676 207.663 357.159 202.574C358.048 199.58 357.144 196.292 354.446 193.008C351.748 189.425 349.054 187.637 346.065 187.644C340.686 187.656 334.121 191.86 325.776 201.452L325.775 200.854ZM198.444 319.312L199.934 317.813C195.44 313.037 191.542 307.662 188.541 301.986L186.75 302.887C175.106 308.001 168.841 312.801 167.658 317.889C166.768 320.882 167.673 324.171 170.371 327.455C173.068 331.038 175.762 332.826 178.751 332.819C184.13 332.806 190.696 328.604 199.041 319.011L198.444 319.312ZM321.284 323.808L319.787 322.614C319.488 322.615 319.19 323.214 318.892 323.514C317.102 325.014 315.313 326.514 313.224 328.015C312.627 328.315 312.032 328.915 311.434 329.215C309.346 330.716 307.257 332.216 304.869 333.418C304.57 333.419 304.272 333.719 303.975 334.019L304.875 335.811C309.983 347.465 314.779 353.736 319.864 355.219C320.462 355.218 321.359 355.516 321.957 355.514C324.348 355.508 326.736 354.605 329.42 352.504C333.001 349.804 334.788 347.108 334.781 344.117C334.768 338.732 330.568 332.161 320.985 323.808L321.284 323.808ZM297.706 337.024C297.706 337.024 297.108 337.026 296.809 337.327C294.122 338.529 291.734 339.432 289.047 340.336L288.449 340.337C285.463 341.241 282.177 342.147 279.19 342.752L279.195 344.846C280.719 357.406 283.427 364.878 287.916 367.859C289.413 368.752 290.908 369.348 293 369.343C295.092 369.338 296.286 369.035 298.079 368.433C302.259 366.927 304.645 365.127 305.834 362.132C307.615 357.043 305.505 349.271 298.904 338.518L297.705 336.725L297.706 337.024ZM225.985 338.989C219.735 349.773 217.362 357.556 219.167 362.637C220.369 365.626 222.765 367.714 226.952 368.9C231.14 370.386 234.426 370.079 237.112 368.278C241.587 365.276 244.26 357.791 245.425 345.225L245.42 343.131C239.141 341.95 232.86 339.871 227.176 337.191L225.985 338.989ZM220.594 334.216C214.954 330.958 209.641 327.164 204.728 322.886L203.238 324.386C193.693 332.784 189.226 339.375 189.538 344.76C189.545 347.751 191.345 350.737 194.938 353.122C198.53 355.806 201.519 356.397 204.507 355.792C209.584 354.284 214.649 347.99 219.405 336.612L220.296 334.815L220.594 334.216ZM272.021 344.265L271.722 344.266C269.331 344.272 266.942 344.576 264.551 344.582L252.597 344.61L252.004 346.706C249.343 358.976 249.661 367.051 252.958 371.231C254.757 373.62 258.047 374.809 262.231 374.8C266.415 374.79 269.699 373.585 271.487 371.188C274.765 366.992 275.044 358.915 272.325 346.658L271.723 344.565L272.021 344.265ZM354.446 290.5C332.032 290.554 354.394 268.365 354.446 290.5C354.393 268.066 376.86 290.447 354.446 290.5C376.86 290.447 354.499 312.934 354.446 290.5C354.499 312.934 332.032 290.554 354.446 290.5Z" fill="#E3D89E"/>
<path d="M350.738 252.395L348.646 252.993C348.945 256.284 349.244 259.275 349.244 262.864C349.244 266.454 349.244 269.445 348.646 272.736L350.738 273.334C362.991 276.026 371.06 275.727 375.244 272.437C377.635 270.642 378.83 267.351 378.83 263.164C378.83 258.976 377.635 255.685 375.244 253.89C371.06 250.6 362.991 250.301 350.738 252.993V252.395ZM349.543 279.616H347.451C346.255 285.897 344.163 292.179 341.474 297.863L343.267 298.76C354.026 305.042 361.796 307.435 366.876 305.64C369.865 304.444 371.957 302.051 373.152 297.863C374.348 293.675 374.348 290.384 372.555 287.692C369.566 283.205 362.095 280.513 349.543 279.317V279.616ZM341.474 227.567C344.163 233.55 346.255 239.831 347.451 246.113H349.543C362.095 244.617 369.566 241.925 372.555 237.438C374.348 234.746 374.348 231.456 373.152 227.268C371.658 223.08 369.865 220.687 366.876 219.49C361.796 217.696 354.324 219.79 343.267 226.37L341.474 227.567ZM340.278 305.341L338.485 304.444C335.217 310.081 331.414 315.39 327.129 320.298L328.623 321.793C336.991 331.365 343.267 335.553 348.945 335.553C351.934 335.553 354.922 333.758 357.313 330.169C360.003 326.579 360.6 323.588 360.003 320.597C358.508 315.511 352.232 310.426 340.876 305.64L340.278 305.341ZM323.542 326.579L322.048 325.084C317.266 329.571 311.887 333.459 306.209 336.451L307.105 338.245C312.186 349.912 316.968 356.193 322.048 357.689C325.037 358.586 328.324 357.689 331.611 354.997C335.198 352.305 336.991 349.612 336.991 346.621C336.991 341.237 332.807 334.656 323.244 326.28L323.542 326.579ZM188.759 220.388L190.552 221.285C192.046 218.593 193.839 215.901 195.633 213.209C195.633 213.209 195.633 212.909 195.931 212.61C197.725 210.217 199.219 208.123 201.311 206.029C201.311 206.029 201.61 205.431 201.909 205.132L200.414 203.636C192.345 194.363 185.77 189.876 180.69 189.876H180.391C177.402 189.876 174.414 191.671 172.023 195.261C169.333 198.85 168.736 201.842 169.333 204.833C170.828 209.918 177.104 215.003 188.46 219.789L188.759 220.388ZM200.713 321.793L201.909 320.298C201.909 320.298 201.61 319.699 201.311 319.4C199.518 317.306 197.725 315.212 195.931 312.819C195.931 312.819 195.931 312.52 195.633 312.221C193.839 309.529 192.046 307.136 190.552 304.145L188.759 305.042C177.104 310.127 170.828 314.913 169.333 319.998C168.437 322.99 169.333 326.28 172.023 329.571C174.713 333.16 177.402 334.955 180.391 334.955C185.77 334.955 192.345 330.767 200.713 321.195V321.793ZM328.324 203.636L326.83 205.132C331.313 209.918 335.198 215.303 338.186 220.986L339.979 220.089C351.635 215.003 357.911 210.217 359.106 205.132C360.003 202.141 359.106 198.85 356.416 195.56C353.727 191.97 351.037 190.176 348.048 190.176C342.669 190.176 336.094 194.363 327.726 203.936L328.324 203.636ZM205.495 198.85L206.989 200.047C207.288 200.047 207.587 199.449 207.886 199.149C209.679 197.654 211.472 196.158 213.564 194.662C214.162 194.363 214.759 193.765 215.357 193.466C217.449 191.97 219.541 190.475 221.932 189.278C222.231 189.278 222.53 188.979 222.828 188.68L221.932 186.885C216.851 175.219 212.07 168.937 206.989 167.442C206.391 167.442 205.495 167.142 204.897 167.142C202.506 167.142 200.115 168.04 197.426 170.134C193.839 172.826 192.046 175.518 192.046 178.509C192.046 183.894 196.23 190.475 205.794 198.85H205.495ZM229.104 185.689C229.104 185.689 229.702 185.689 230.001 185.389C232.691 184.193 235.081 183.296 237.771 182.398H238.369C241.357 181.501 244.645 180.603 247.633 180.005V177.911C246.139 165.348 243.449 157.869 238.967 154.878C237.472 153.981 235.978 153.382 233.886 153.382C231.794 153.382 230.599 153.682 228.805 154.28C224.622 155.776 222.231 157.57 221.035 160.562C219.242 165.647 221.334 173.424 227.909 184.193L229.104 185.988V185.689ZM300.829 183.894C307.105 173.125 309.496 165.348 307.703 160.262C306.508 157.271 304.117 155.177 299.933 153.981C295.749 152.485 292.462 152.784 289.772 154.579C285.289 157.57 282.599 165.049 281.404 177.612V179.706C287.68 180.902 293.956 182.996 299.634 185.689L300.829 183.894ZM306.209 188.68C311.841 191.952 317.146 195.758 322.048 200.047L323.542 198.551C333.106 190.176 337.589 183.595 337.29 178.21C337.29 175.219 335.497 172.228 331.91 169.835C328.324 167.142 325.336 166.544 322.347 167.142C317.266 168.638 312.186 174.92 307.404 186.287L306.508 188.082L306.209 188.68ZM254.806 178.509H255.105C257.496 178.509 259.886 178.21 262.277 178.21H274.231L274.829 176.116C277.519 163.852 277.22 155.776 273.933 151.588C272.139 149.195 268.852 147.998 264.668 147.998C260.484 147.998 257.197 149.195 255.404 151.588C252.116 155.776 251.817 163.852 254.507 176.116L255.105 178.21L254.806 178.509ZM262.277 262.864C284.691 262.864 262.277 285 262.277 262.864C262.277 285.299 239.863 262.864 262.277 262.864C239.863 262.864 262.277 240.43 262.277 262.864C262.277 240.43 284.691 262.864 262.277 262.864Z" fill="#E3D89E"/>
<path d="M350.557 68.8003C349.66 69.3993 348.764 69.6983 347.867 69.1003C346.672 68.5013 346.074 67.3053 346.373 66.1083V55.6393C346.373 53.2463 345.775 50.8533 345.177 47.8613C344.879 45.4683 344.281 42.7763 343.384 40.0843C342.787 37.9903 342.189 36.1953 341.591 34.1013C337.706 21.2393 332.327 10.1713 329.936 5.68428C300.349 22.1363 287.2 47.2633 287.2 47.5623C286.602 48.7593 285.108 49.3573 283.912 48.7593C282.717 48.1603 282.119 46.6653 282.717 45.4683C283.315 44.2723 297.062 17.3503 329.936 0.299286C331.131 -0.298714 332.626 0.299281 333.223 1.19728C333.522 1.79528 341.292 15.5553 346.672 32.9053C347.269 34.9993 347.867 36.7933 348.465 38.8873C349.361 41.8793 349.959 44.5713 350.258 47.2633C350.856 50.5533 351.155 53.2463 351.453 55.6393C351.752 59.2283 352.051 63.1173 351.453 67.0063V67.9033C351.453 68.2023 351.155 68.5013 350.856 68.8003H350.557Z" fill="#E3D89E"/>
<path d="M328.741 66.7063C328.144 67.0063 326.948 66.7063 326.649 66.1083C322.466 58.6303 321.569 48.7593 321.569 41.5793C318.282 48.1603 312.603 57.1343 305.431 60.4253C304.534 60.7243 303.638 60.4253 303.339 59.5273C303.04 58.6303 303.339 57.7333 304.235 57.4333C314.396 52.9463 321.868 33.2043 321.868 32.9053C321.868 32.3063 322.764 31.7083 323.661 32.0073C324.259 32.0073 324.856 32.9053 324.856 33.8023C324.856 33.8023 322.764 53.2463 329.339 64.3133C329.638 64.9123 329.339 65.8093 329.04 66.1083L328.741 66.7063ZM214.579 63.4163C209.797 60.4253 206.51 52.9463 206.51 52.9463C206.51 52.9463 208.004 61.9203 205.016 65.8093C205.016 65.8093 210.993 69.1003 211.889 72.6893C211.292 69.9973 211.889 65.8093 214.579 63.4163Z" fill="#E3D89E"/>
<path d="M242.371 49.955C242.073 50.853 241.176 51.75 240.279 51.75C239.084 51.75 237.889 51.152 237.59 49.955C236.096 46.665 234.302 43.673 232.21 40.981C231.015 38.887 229.521 37.093 227.429 34.7C225.934 32.905 224.141 30.811 222.049 29.016C220.555 27.52 219.061 26.025 217.567 24.828C207.704 15.854 197.543 8.97396 193.359 5.98295C175.727 34.999 177.221 63.416 177.221 63.715C177.221 65.211 176.325 66.407 174.83 66.407C173.336 66.407 172.141 65.51 172.141 64.014C172.141 62.818 170.646 32.306 190.371 1.19696C190.968 -4.07696e-05 192.762 -0.299036 193.957 0.298964C194.555 0.598964 208.003 8.67496 221.153 20.939C222.647 22.435 224.141 23.632 225.636 25.127C227.728 27.221 229.82 29.315 231.314 31.409C233.406 34.101 235.199 36.195 236.394 37.99C238.486 40.981 240.578 44.272 242.371 47.861V49.955Z" fill="#E3D89E"/>
<path d="M226.233 40.3835C226.233 40.3835 226.233 40.6824 225.934 40.9814C220.854 46.0664 217.566 50.5534 216.371 54.4424C216.371 55.3404 215.176 55.6394 214.578 55.3394C213.681 55.3394 213.383 54.1434 213.681 53.5454C214.877 49.0584 218.463 44.2724 224.141 38.8874C224.739 38.2894 225.636 38.2894 226.233 38.8874C226.532 39.1864 226.831 39.7855 226.532 40.3835H226.233ZM211.291 48.7594C211.291 49.3574 210.394 49.9554 209.796 49.6564C208.9 49.6564 208.302 49.0584 208.302 48.1604C208.302 40.0844 211.291 33.5034 213.681 29.3154C213.98 28.7174 214.877 28.4185 215.773 28.7175C216.371 29.0165 216.67 29.9134 216.371 30.8114C214.279 34.7004 211.589 40.9814 211.291 48.4604V48.7594ZM207.704 43.3744C207.704 43.9734 207.107 44.2724 206.509 44.2724C205.612 44.2724 204.716 44.2725 204.716 43.0755C202.325 34.1015 202.923 26.3245 203.819 21.5385C203.819 20.6405 204.716 20.0424 205.612 20.3414C206.509 20.3414 207.107 21.2394 206.808 22.1364C205.911 26.9224 205.612 34.1014 207.704 42.4774V43.3744ZM203.52 44.2724C203.52 44.8704 202.923 45.1694 202.325 45.1694C201.428 45.1694 200.831 44.8704 200.532 43.9734C199.037 35.8964 190.371 26.6234 190.371 26.3244C189.773 25.7264 189.773 24.8285 190.371 24.2305C190.968 23.6325 191.865 23.6325 192.463 24.2305C192.762 24.5295 201.727 34.4004 203.221 43.3744V43.9734L203.52 44.2724Z" fill="#E3D89E"/>
<path d="M203.222 50.2548C203.222 50.5538 202.924 50.8538 202.326 51.1528C201.429 51.4518 200.533 51.1528 200.234 50.2548C196.349 41.8798 186.785 40.0848 186.487 40.0848C185.59 40.0848 184.992 39.1868 185.291 38.2898C185.291 37.3928 186.188 36.7938 187.084 37.0938C187.682 37.0938 198.441 39.4868 202.924 49.0588V50.2548H203.222Z" fill="#E3D89E"/>
<path d="M234.004 51.4506C234.004 51.7496 233.705 52.0486 233.406 52.3476C232.808 52.6466 231.613 52.3476 231.314 51.7496C221.153 34.6986 202.026 21.2386 196.647 17.9476C184.692 41.5786 184.991 63.7146 184.991 64.0136C184.991 64.9116 184.394 65.5096 183.497 65.5096C182.6 65.5096 182.003 64.9116 182.003 64.0136C182.003 63.1166 181.704 39.7846 194.555 14.9566C194.555 14.6576 195.152 14.3586 195.451 14.0586H196.647C197.543 14.6576 221.452 29.3146 233.705 49.9546V51.1516L234.004 51.4506Z" fill="#E3D89E"/>
<path d="M222.348 59.2278C222.049 59.8258 220.854 60.1258 220.256 59.8258C212.785 55.6388 207.107 47.2628 203.52 41.2798C203.819 48.7588 203.52 59.2278 199.037 65.5098C198.44 66.1078 197.543 66.4068 196.945 65.8088C196.348 65.2108 196.049 64.3128 196.647 63.7148C203.221 54.7408 199.934 33.8018 199.635 33.8018C199.635 33.2038 199.934 32.3058 200.831 32.0068C201.428 32.0068 202.325 32.0068 202.624 32.9048C202.624 32.9048 210.394 50.5528 221.75 57.1338C222.348 57.4328 222.647 58.3308 222.348 58.9288V59.2278ZM121.634 113.371C115.956 113.371 109.381 108.585 109.381 108.585C109.381 108.585 115.059 115.465 114.76 120.55C114.76 120.55 121.634 120.55 124.324 122.943C122.531 121.148 121.036 116.96 121.933 113.67L121.634 113.371Z" fill="#E3D89E"/>
<path d="M138.968 87.9453C138.968 88.8423 138.968 90.0392 138.071 90.6372C137.175 91.2352 135.68 91.2352 134.784 90.6372C131.795 88.5432 128.807 87.0472 125.818 85.5522C123.726 84.6542 121.335 83.4583 118.347 82.5603C116.255 81.6633 113.565 80.7663 110.875 80.1673C108.783 79.5693 106.99 79.2703 104.898 78.6723C92.0483 75.6803 79.4963 74.7832 74.4153 74.7832C73.8173 108.884 89.0593 132.515 89.0593 132.814C89.9563 134.011 89.3583 135.507 88.4613 136.404C87.2663 137.301 85.7723 136.703 84.8753 135.806C84.2773 134.609 67.8403 109.183 69.3353 72.0912C69.3353 70.5952 70.5303 69.6982 72.0243 69.6982C72.6223 69.6982 88.4613 69.6982 106.094 73.8862C108.186 74.4842 109.979 74.7833 112.071 75.3813C115.059 75.9803 117.749 77.1762 120.14 77.7742C123.427 78.9712 125.818 79.8682 127.91 81.0652C131.197 82.5602 134.485 84.3553 138.071 86.7483C138.071 86.7483 138.669 87.0473 138.669 87.3473C138.669 87.3473 138.968 87.9453 138.968 88.2443V87.9453Z" fill="#E3D89E"/>
<path d="M120.14 87.6456V88.2436C118.048 95.1236 117.749 100.807 118.646 104.696C118.646 105.594 118.646 106.192 117.45 106.491C116.554 106.491 115.956 106.491 115.657 105.294C114.462 100.807 115.059 95.1236 117.151 87.3466C117.151 86.4486 118.347 86.1496 118.944 86.1496C119.542 86.1496 119.841 86.7476 120.14 87.3466V87.6456ZM111.473 102.303C111.473 102.901 111.473 103.5 110.577 104.098C109.979 104.397 108.783 104.098 108.485 103.5C104.599 96.3196 103.703 89.1406 103.703 84.3546C103.703 83.4576 104.301 82.8596 105.197 82.8596C106.094 82.8596 106.691 83.4576 106.691 84.3546C106.691 88.8416 107.588 95.4226 111.174 102.004V102.303H111.473ZM105.795 99.6106C105.795 100.209 105.795 100.508 105.496 101.107C104.898 101.705 104.002 101.705 103.404 101.107C96.8289 94.5256 93.5419 87.6456 91.7489 82.8596C91.4499 81.9616 91.7489 81.0646 92.6449 80.7656C93.5419 80.7656 94.4379 80.7656 94.7369 81.6626C96.5299 86.1496 99.5189 92.7306 105.795 98.7126C105.795 98.7126 106.094 99.3116 106.094 99.6106H105.795ZM102.507 102.602C102.507 103.2 102.507 103.799 101.91 104.098C101.312 104.696 100.415 104.696 99.8179 104.098C94.7369 97.8156 82.4839 93.9266 82.1849 93.9266C81.2889 93.9266 80.9899 92.7306 81.2889 92.1326C81.2889 91.2346 82.4839 90.9356 83.0819 91.2346C83.6799 91.2346 96.2309 95.4226 102.209 102.303C102.209 102.303 102.209 102.602 102.507 102.901V102.602Z" fill="#E3D89E"/>
<path d="M105.496 107.687V108.884C104.898 109.482 104.002 109.781 103.404 109.183C95.9332 103.799 86.6682 107.089 86.3692 107.089C85.4732 107.089 84.5762 107.089 84.5762 106.192C84.5762 105.294 84.5762 104.397 85.4732 104.397C85.7722 104.397 96.5302 100.807 105.197 106.79C105.496 106.79 105.795 107.388 105.795 107.687H105.496Z" fill="#E3D89E"/>
<path d="M132.393 93.3292V94.5262C132.094 95.1242 131.198 95.4231 130.301 95.1241C112.967 85.5521 89.6568 83.4582 83.3808 83.1592C84.8748 109.482 96.2308 128.627 96.2308 128.926C96.8288 129.524 96.2318 130.721 95.6338 131.02C95.0358 131.319 93.8408 131.02 93.5418 130.421C92.9438 129.524 80.9898 109.482 80.0928 81.6632C80.0928 81.3642 80.0928 80.7662 80.3918 80.4672C80.3918 80.1672 80.9898 79.8682 81.5878 79.8682C82.7828 79.8682 110.875 80.7662 131.496 92.4322C131.795 92.4322 132.094 93.0302 132.094 93.3292H132.393Z" fill="#E3D89E"/>
<path d="M126.416 106.192C126.416 107.089 125.818 107.687 124.922 107.687C116.554 107.687 107.289 103.5 101.312 99.9104C105.197 106.192 110.278 115.465 109.68 123.242C109.68 124.14 108.783 124.738 107.887 124.738C106.99 124.738 106.393 123.841 106.393 122.943C107.588 111.875 94.1404 95.4234 94.1404 95.4234C93.5424 94.8254 93.5424 93.9274 94.1404 93.3294C94.7374 92.7314 95.6344 92.7314 96.2314 93.3294C96.2314 93.3294 112.071 104.696 124.922 104.995C125.519 104.995 126.117 105.594 126.416 106.192ZM66.0474 203.11C61.2664 205.802 52.8984 204.905 52.8984 204.905C52.8984 204.905 61.2654 208.195 63.3574 212.682C63.3574 212.682 69.3355 209.093 72.6225 209.99C69.9325 209.392 66.6454 206.401 65.7484 203.11H66.0474Z" fill="#E3D89E"/>
<path d="M68.7373 172.599C69.3353 173.496 69.6333 174.394 69.0363 175.291C68.4383 176.488 67.2433 177.086 66.0473 176.787H55.5873C53.1963 176.787 50.8063 177.385 47.8173 177.983C45.4263 178.282 42.7363 178.881 40.0473 179.778C37.9553 180.376 36.1623 180.975 34.0703 181.573C21.2193 185.462 10.1613 190.846 5.67931 193.239C22.1163 222.853 47.2193 236.015 47.5183 236.015C48.7143 236.613 49.3113 238.109 48.7143 239.305C48.1163 240.502 46.6223 241.1 45.4263 240.502C44.2313 239.903 17.3343 226.143 0.299307 193.239C-0.298693 192.042 0.29931 190.547 1.19631 189.948C1.79331 189.649 15.5413 181.872 32.8743 176.488C34.9663 175.889 36.7593 175.291 38.8513 174.693C41.8403 173.795 44.5303 173.197 47.2193 172.898C50.5073 172.3 53.1963 172.001 55.5873 171.701C59.1743 171.402 63.0593 171.103 66.9443 171.701H67.8403C68.1393 171.701 68.4383 172.001 68.7373 172.3V172.599Z" fill="#E3D89E"/>
<path d="M52.0014 181.872C52.0014 181.872 52.0014 182.171 52.3004 182.47C54.0934 189.649 56.4844 194.735 59.1734 197.427C59.7714 198.025 59.7714 198.922 59.1734 199.521C58.5764 200.119 57.6794 200.119 57.0824 199.521C53.7944 196.23 51.4034 190.846 49.6104 183.368C49.6104 182.47 49.6104 181.573 50.8064 181.573C51.4034 181.573 52.0014 181.573 52.3004 182.171L52.0014 181.872ZM52.0014 198.922C52.3004 199.521 52.5994 200.119 52.0014 200.717C51.7024 201.315 50.5074 201.615 49.9094 201.315C43.0354 197.128 38.5534 191.444 36.1624 187.256C35.8634 186.658 36.1624 185.462 36.7594 185.162C37.3574 184.863 38.5534 185.162 38.8514 185.761C41.2424 189.649 45.1274 195.034 51.4034 198.922H52.0014ZM45.4264 199.222C45.7254 199.521 46.0244 200.119 45.7254 200.717C45.7254 201.615 44.5304 201.914 43.9324 201.914C34.9664 199.521 28.6904 195.034 24.8054 192.042C24.2074 191.444 24.2074 190.547 24.8054 189.948C25.4034 189.35 26.2994 189.35 26.8974 189.948C30.4834 192.94 36.7594 197.128 45.1274 199.222C45.1274 199.222 45.7254 199.222 45.7254 199.82L45.4264 199.222ZM44.2314 203.409C44.5304 203.708 44.8284 204.307 44.2314 204.905C44.2314 205.802 43.0354 206.102 42.1394 205.802C34.3694 203.11 22.1164 205.802 21.8174 205.802C20.9204 205.802 20.3224 205.503 20.0244 204.606C20.0244 203.708 20.3224 203.11 21.2194 202.811C21.8174 202.811 34.6674 199.82 43.3344 202.811C43.3344 202.811 43.9324 202.811 43.9324 203.11L44.2314 203.409Z" fill="#E3D89E"/>
<path d="M49.311 206.401C49.311 206.7 49.61 206.999 49.61 207.597C49.61 208.495 48.714 209.093 47.817 209.093C38.851 208.195 32.277 215.674 31.978 215.674C31.38 216.272 30.483 216.272 29.886 215.674C29.288 215.075 29.288 214.178 29.886 213.58C30.185 213.281 37.656 204.905 48.116 205.802C48.415 205.802 48.714 205.802 49.012 206.401H49.311Z" fill="#E3D89E"/>
<path d="M65.4489 180.376C65.4489 180.376 65.7479 180.975 65.7479 181.274C65.7479 182.171 65.1509 182.769 64.2539 182.769C44.5299 182.769 23.3109 192.94 17.6329 195.931C31.9779 218.067 51.4029 228.835 51.7019 228.835C52.5989 229.135 52.5989 230.032 52.2999 230.929C52.0009 231.528 51.1039 231.827 50.2079 231.528C49.3109 230.929 28.9889 219.862 14.0459 195.931V194.735C14.0459 194.435 14.3449 193.837 14.6439 193.837C15.5409 193.239 40.3459 180.077 64.2539 179.479C64.8519 179.479 65.1509 179.479 65.4489 180.077V180.376Z" fill="#E3D89E"/>
<path d="M66.645 194.435C66.944 195.034 66.645 196.23 66.047 196.529C58.576 200.717 48.714 201.615 41.541 201.615C48.116 204.905 57.082 210.588 60.369 217.768C60.668 218.665 60.369 219.562 59.472 219.862C58.576 220.161 57.679 219.862 57.38 218.964C52.898 208.794 33.173 201.315 32.874 201.315C32.277 201.315 31.679 200.418 31.978 199.521C31.978 198.922 32.874 198.324 33.771 198.324C33.771 198.324 53.196 200.418 64.254 193.837C64.852 193.538 65.748 193.837 66.047 194.136L66.645 194.435ZM63.059 308.703C60.07 313.49 52.599 316.78 52.599 316.78C52.599 316.78 61.564 315.284 65.449 318.276C65.449 318.276 68.737 312.293 72.323 311.396C69.633 311.994 65.449 311.396 63.059 308.703Z" fill="#E3D89E"/>
<path d="M49.909 281.184C50.806 281.484 51.702 282.381 51.702 283.278C51.702 284.475 51.104 285.671 49.909 285.971C46.622 287.466 43.633 289.261 40.943 291.355C38.851 292.551 37.058 294.047 34.667 296.141C32.874 297.637 30.782 299.431 28.989 301.525C27.495 303.021 26.001 304.517 24.805 306.012C15.84 315.884 8.96601 326.054 5.97701 330.242C34.966 347.891 63.357 346.395 63.656 346.395C65.151 346.395 66.346 347.292 66.346 348.788C66.346 350.284 65.449 351.48 63.955 351.48C62.76 351.48 32.277 352.976 1.196 333.233C2.38419e-06 332.635 -0.299001 330.84 0.298999 329.644C0.597999 329.045 8.667 315.584 20.92 302.423C22.414 300.927 23.61 299.431 25.104 297.936C27.196 295.842 29.288 293.748 31.38 292.252C34.07 290.158 36.162 288.364 37.955 287.167C40.943 285.073 44.231 282.979 47.817 281.184H49.909Z" fill="#E3D89E"/>
<path d="M40.0466 297.336C40.0466 297.336 40.3456 297.336 40.6446 297.636C45.7246 302.721 50.2076 306.011 54.0926 307.208C54.9896 307.208 55.2876 308.404 54.9896 309.003C54.9896 309.9 53.7936 310.199 53.1956 309.9C48.7136 308.703 43.9316 305.114 38.5526 299.43C37.9546 298.832 37.9546 297.935 38.5526 297.336C38.8506 297.037 39.4486 296.738 40.0466 297.037V297.336ZM48.4146 311.994C49.0116 311.994 49.6096 312.891 49.6096 313.49C49.6096 314.387 49.0116 314.985 48.1156 314.985C40.0466 314.985 33.4715 311.994 29.2875 309.601C28.6895 309.302 28.3906 308.404 28.6896 307.507C28.9886 306.909 29.8856 306.61 30.7816 306.909C34.6666 309.003 40.9426 311.695 48.4146 311.994ZM43.3336 315.883C43.9316 315.883 44.2306 316.481 44.2306 317.079C44.2306 317.977 44.2306 318.874 43.0346 318.874C34.0696 321.267 26.2986 320.669 21.5176 319.771C20.6206 319.771 20.0236 318.874 20.3216 317.977C20.3216 317.079 21.2186 316.481 22.1156 316.78C26.8966 317.677 34.0696 317.977 42.4376 315.883H43.3336ZM44.2306 320.07C44.8276 320.07 45.1266 320.669 45.1266 321.267C45.1266 322.164 44.8276 322.763 43.9316 323.062C35.8626 324.557 26.5975 333.232 26.2985 333.232C25.7015 333.83 24.8046 333.83 24.2076 333.232C23.6096 332.634 23.6096 331.737 24.2076 331.138C24.5056 330.839 34.3686 321.865 43.3336 320.37H43.9316L44.2306 320.07Z" fill="#E3D89E"/>
<path d="M49.9091 320.07C50.2081 320.07 50.5071 320.37 50.8061 320.968C51.1041 321.865 50.8061 322.763 49.9091 323.062C41.5411 326.95 39.7481 336.523 39.7481 336.822C39.7481 337.719 38.8511 338.317 37.9551 338.018C37.0581 338.018 36.4611 337.121 36.7591 336.224C36.7591 335.625 39.1501 324.857 48.7141 320.37H49.9091V320.07Z" fill="#E3D89E"/>
<path d="M51.104 289.26C51.403 289.26 51.7021 289.559 52.0011 289.858C52.3001 290.457 52.001 291.653 51.403 291.952C34.369 302.123 20.92 321.267 17.633 326.651C41.242 338.617 63.3571 338.317 63.6561 338.317C64.5531 338.317 65.151 338.916 65.151 339.813C65.151 340.711 64.5531 341.309 63.6561 341.309C62.7601 341.309 39.449 341.608 14.644 328.745C14.345 328.745 14.046 328.147 13.748 327.848V326.651C14.345 325.754 28.989 301.823 49.61 289.559H50.806L51.104 289.26Z" fill="#E3D89E"/>
<path d="M58.8757 301.225C59.4727 301.524 59.7717 302.721 59.4727 303.319C55.2887 310.797 46.9207 316.481 40.9437 320.07C48.4157 319.771 58.8757 320.07 65.1517 324.557C65.7487 325.156 66.0477 326.053 65.4497 326.651C64.8527 327.25 63.9557 327.549 63.3577 326.95C54.3927 320.37 33.4727 323.66 33.4727 323.959C32.8747 323.959 31.9787 323.66 31.6797 322.763C31.6797 322.164 31.6797 321.267 32.5757 320.968C32.5757 320.968 50.2087 313.19 56.7837 301.823C57.0827 301.225 57.9787 300.926 58.5767 301.225H58.8757ZM112.968 401.733C112.968 407.417 108.187 413.998 108.187 413.998C108.187 413.998 115.06 408.314 120.141 408.613C120.141 408.613 120.141 401.733 122.532 399.041C120.739 400.836 116.555 402.331 113.267 401.434L112.968 401.733Z" fill="#E3D89E"/>
<path d="M87.8638 384.385C88.7598 384.385 89.9558 384.385 90.5528 385.282C91.1508 386.179 91.1508 387.675 90.5528 388.572C88.4608 391.564 86.9668 394.555 85.4728 397.546C84.5758 399.64 83.3808 402.033 82.4838 405.025C81.466 407.441 80.6659 409.944 80.0928 412.503C79.4958 414.597 79.1968 416.392 78.5988 418.486C75.6098 431.348 74.7138 443.912 74.7138 448.997C108.783 449.595 132.393 434.339 132.692 434.339C133.887 433.442 135.381 434.04 136.278 434.938C137.175 436.134 136.577 437.63 135.68 438.527C134.485 439.126 109.082 455.578 72.0238 454.082C70.5298 454.082 69.6328 452.886 69.6328 451.39C69.6328 450.792 69.6328 434.938 73.8168 417.289C74.4148 415.195 74.7138 413.4 75.3118 411.306C75.9088 408.315 77.1048 405.623 77.7018 403.23C78.8978 399.939 79.7938 397.546 80.9898 395.452C82.4838 392.162 84.2768 388.872 86.6678 385.282C86.6678 385.282 86.9668 384.684 87.2658 384.684C87.2658 384.684 87.8638 384.385 88.1618 384.385H87.8638Z" fill="#E3D89E"/>
<path d="M92.9441 390.964H94.1401C94.7371 391.264 95.0361 392.161 94.7371 393.058C85.1741 410.408 83.0821 433.74 82.7831 440.022C109.082 438.526 128.209 427.159 128.508 427.159C129.106 426.561 130.301 427.159 130.6 427.758C130.899 428.356 130.6 429.552 130.002 429.851C129.106 430.45 109.082 442.415 81.2891 443.312C80.9901 443.312 80.3921 443.312 80.0931 443.013C79.7941 443.013 79.4961 442.415 79.4961 441.817C79.4961 440.62 80.3921 412.502 92.0481 391.862C92.0481 391.563 92.6451 391.264 92.9441 391.264V390.964Z" fill="#E3D89E"/>
<path d="M228.326 431.346C228.625 431.047 229.222 430.748 230.118 430.748C231.314 430.748 232.509 431.944 232.509 433.141C232.509 441.218 235.499 448.696 241.177 454.379C246.855 460.063 254.327 463.054 262.396 463.054C270.465 463.054 277.935 460.063 283.613 454.379C289.292 448.696 292.281 441.218 292.281 433.141C292.281 431.944 293.477 430.748 294.672 430.748C295.867 430.748 297.062 431.944 297.062 433.141C297.062 442.414 293.477 451.089 286.902 457.67C280.327 464.251 271.66 467.84 262.396 467.84C253.131 467.84 244.463 464.251 237.889 457.67C231.314 451.089 227.729 442.414 227.729 433.141C227.729 432.543 227.729 431.944 228.326 431.346ZM306.327 433.44C306.327 432.543 307.224 431.645 308.12 431.047C309.914 429.851 312.603 430.449 313.5 432.543C324.856 451.986 349.66 458.567 369.086 447.499C378.649 442.115 385.225 433.141 388.214 422.671C390.902 412.202 389.707 401.134 384.029 391.861C382.833 390.066 383.73 387.374 385.523 386.477C387.316 385.28 390.007 385.878 390.903 387.972C397.478 399.339 399.271 412.501 395.685 425.064C392.398 437.628 384.327 448.098 372.971 454.678C349.66 468.139 319.776 460.063 306.327 436.731C305.73 435.833 305.729 434.637 306.029 433.739L306.327 433.44Z" fill="#E3D89E"/>
<path d="M374.764 131.618H372.971C371.776 131.02 371.477 129.524 372.074 128.327C375.959 121.447 377.155 113.371 375.063 105.594C372.971 97.8155 368.189 91.5336 361.316 87.3466C354.442 83.4576 346.373 82.2606 338.603 84.3546C330.832 86.4486 324.556 91.2345 320.373 98.1145C319.775 99.3115 318.281 99.6105 317.085 99.0125C315.89 98.4135 315.591 96.9186 316.189 95.7216C320.671 87.6456 328.143 81.9615 337.108 79.5685C346.074 77.1755 355.338 78.3726 363.408 83.1586C371.477 87.6456 377.155 95.1235 379.546 104.098C381.937 113.072 380.741 122.345 375.959 130.421C375.661 131.02 375.063 131.319 374.465 131.618H374.764ZM308.119 90.6365C307.522 91.2345 306.326 91.8336 305.43 91.8336C303.338 91.8336 301.545 90.0386 301.545 87.9445C301.545 65.5096 283.315 47.2625 260.9 47.2625C250.142 47.2625 239.682 51.4506 232.21 59.2276C224.44 67.0056 220.256 77.1755 220.256 87.9445C220.256 90.0386 218.463 91.8336 216.371 91.8336C214.279 91.8336 212.486 90.0386 212.486 87.9445C212.486 74.7826 217.567 62.5185 226.831 53.5445C236.096 44.2715 248.349 39.1855 261.199 39.1855C288.096 39.1855 309.913 61.0225 309.913 87.9445C309.913 89.1405 309.614 90.0385 308.717 90.6365H308.119Z" fill="#E3D89E"/>
<path d="M294.671 92.4315C294.372 92.7305 293.774 93.0295 292.878 93.0295C291.682 93.0295 290.487 91.8335 290.487 90.6365C290.487 82.5595 287.499 75.0815 281.82 69.3985C276.142 63.7145 268.671 60.7235 260.602 60.7235C252.533 60.7235 245.061 63.7145 239.383 69.3985C233.705 75.0815 230.716 82.5595 230.716 90.6365C230.716 91.8335 229.521 93.0295 228.325 93.0295C227.13 93.0295 225.934 91.8335 225.934 90.6365C225.934 81.3635 229.521 72.6885 236.096 66.1075C242.67 59.5265 251.337 55.9375 260.602 55.9375C269.866 55.9375 278.533 59.5265 285.108 66.1075C291.682 72.6885 295.269 81.3635 295.269 90.6365C295.269 91.2345 295.269 91.8335 294.671 92.4315ZM216.371 90.3375C216.371 91.2345 215.475 92.1325 214.578 92.7305C212.785 93.9265 210.095 93.3285 209.199 91.2345C197.842 71.7915 173.037 65.2105 153.612 76.2785C144.048 81.6625 137.473 90.6365 134.485 101.106C131.795 111.575 132.991 122.643 138.669 131.916C139.864 133.711 138.968 136.403 137.175 137.3C135.381 138.497 132.692 137.899 131.795 135.805C125.22 124.438 123.427 111.277 127.014 98.7135C130.301 86.1495 138.37 75.6795 149.727 69.0995C173.037 55.6385 202.923 63.7145 216.371 87.0465C216.969 87.9445 216.969 89.1405 216.67 90.0385L216.371 90.3375Z" fill="#E3D89E"/>
<path d="M205.612 98.414C205.612 99.013 205.015 99.611 204.417 99.91C203.221 100.508 201.727 99.91 201.13 99.013C197.244 92.133 190.67 87.047 182.899 85.253C175.129 83.159 167.06 84.355 160.186 88.244C153.313 92.133 148.232 98.714 146.439 106.491C144.347 114.268 145.543 122.345 149.428 129.225C150.025 130.421 149.428 131.917 148.531 132.515C147.336 133.114 145.841 132.515 145.244 131.618C140.761 123.541 139.267 114.268 141.657 105.294C144.048 96.32 149.727 88.842 157.796 84.355C165.865 79.868 175.129 78.373 184.095 80.766C193.06 83.159 200.532 88.842 205.015 96.919C205.313 97.517 205.313 98.1151 205.015 98.7141L205.612 98.414ZM136.876 135.806C136.876 136.703 136.876 137.9 136.577 138.797C135.381 140.592 132.991 141.489 131.197 140.293C111.772 128.926 86.6678 135.806 75.6108 155.249C70.2308 164.821 68.7368 175.59 71.4268 186.06C74.1158 196.529 80.9898 205.503 90.5528 210.888C92.3458 212.084 93.2428 214.477 92.0478 216.272C90.8518 218.067 88.4608 218.964 86.6678 217.768C75.3118 211.187 67.2428 200.717 63.9548 188.154C60.6678 175.59 62.4608 162.428 68.7368 151.061C82.1848 127.729 112.071 119.653 135.381 133.114C136.278 133.712 136.876 134.609 137.175 135.507L136.876 135.806Z" fill="#E3D89E"/>
<path d="M131.496 148.369V150.164C130.899 151.361 129.404 151.66 128.209 151.061C121.335 147.173 113.266 145.976 105.496 148.07C97.7264 150.164 91.4504 154.95 87.2664 161.83C83.3814 168.71 82.1854 176.787 84.2774 184.564C86.3694 192.342 91.1514 198.623 98.0254 202.811C99.2204 203.409 99.5194 204.905 98.9214 206.102C98.3234 207.298 96.8294 207.597 95.6344 206.999C87.5654 202.512 81.8864 195.034 79.4964 186.06C77.1054 177.086 78.3004 167.813 83.0824 159.736C87.5654 151.66 95.0364 145.976 104.002 143.583C112.967 141.19 122.232 142.387 130.301 147.173C130.899 147.472 131.197 148.07 131.496 148.668V148.369ZM90.5534 215.076C91.1514 215.674 91.7494 216.87 91.7494 217.768C91.7494 219.862 89.9564 221.656 87.8644 221.656C65.4494 221.656 47.2194 239.903 47.2194 262.338C47.2194 273.107 51.4034 283.577 59.1744 291.055C66.9444 298.832 77.1054 303.02 87.8644 303.02C89.9564 303.02 91.7494 304.815 91.7494 306.909C91.7494 309.003 89.9564 310.797 87.8644 310.797C74.7144 310.797 62.4614 305.712 53.4954 296.439C44.2314 287.166 39.1504 274.902 39.1504 262.039C39.1504 235.117 60.9674 213.281 87.8644 213.281C89.0594 213.281 89.9564 213.58 90.5534 214.477V215.076Z" fill="#E3D89E"/>
<path d="M92.0479 228.835C92.3459 229.134 92.6449 229.732 92.6449 230.629C92.6449 231.826 91.4499 233.022 90.2539 233.022C82.1849 233.022 74.7139 236.014 69.0359 241.697C63.3569 247.381 60.3689 254.859 60.3689 262.936C60.3689 271.012 63.3569 278.49 69.0359 284.174C74.7139 289.857 82.1849 292.849 90.2539 292.849C91.4499 292.849 92.6449 294.045 92.6449 295.242C92.6449 296.438 91.4499 297.635 90.2539 297.635C80.9899 297.635 72.3229 294.045 65.7479 287.464C59.1739 280.883 55.5869 272.209 55.5869 262.936C55.5869 253.662 59.1739 244.988 65.7479 238.407C72.3229 231.826 80.9899 228.236 90.2539 228.236C90.8519 228.236 91.4499 228.236 92.0479 228.835ZM89.9559 306.908C90.8519 306.908 91.7489 307.805 92.3459 308.702C93.5419 310.497 92.9439 313.189 90.8519 314.087C71.4269 325.454 64.8519 350.282 75.9089 369.725C81.2889 379.297 90.2539 385.878 100.714 388.87C111.174 391.562 122.232 390.365 131.496 384.682C133.289 383.485 135.979 384.383 136.876 386.177C138.071 387.972 137.473 390.664 135.381 391.562C124.025 398.143 110.875 399.937 98.3229 396.348C85.7719 393.057 75.3119 384.981 68.7369 373.614C55.2879 350.282 63.3569 320.369 86.6679 306.908C87.5649 306.309 88.7599 306.309 89.6569 306.609L89.9559 306.908Z" fill="#E3D89E"/>
<path d="M98.3228 317.977C98.9208 317.977 99.5188 318.575 99.8178 319.173C100.415 320.37 99.8178 321.865 98.9208 322.464C92.0478 326.352 86.9668 332.933 85.1738 340.711C83.0818 348.488 84.2768 356.564 88.1618 363.444C92.0478 370.324 98.6218 375.41 106.393 377.205C114.163 379.298 122.232 378.102 129.106 374.213C130.301 373.615 131.795 374.213 132.393 375.111C132.991 376.307 132.393 377.803 131.496 378.401C123.427 382.888 114.163 384.384 105.197 381.991C96.2308 379.598 88.7598 373.914 84.2768 365.838C79.7938 357.761 78.2998 348.488 80.6908 339.514C83.0818 330.54 88.7598 323.062 96.8288 318.575C97.4268 318.276 98.0248 318.276 98.6218 318.575L98.3228 317.977ZM135.381 386.777C136.278 386.777 137.473 386.777 138.37 387.076C140.163 388.272 141.06 390.665 139.864 392.46C128.508 411.904 135.381 437.031 154.807 448.099C164.37 453.483 175.129 454.979 185.589 452.286C196.049 449.594 205.015 442.714 210.394 433.142C211.589 431.347 213.98 430.45 215.773 431.646C217.566 432.843 218.463 435.236 217.268 437.031C210.693 448.398 200.233 456.474 187.681 459.765C175.129 463.055 161.979 461.26 150.623 454.979C127.312 441.518 119.243 411.605 132.692 388.272C133.289 387.375 134.186 386.777 135.083 386.478L135.381 386.777Z" fill="#E3D89E"/>
<path d="M351.164 69.7999C350.268 70.3989 349.371 70.6979 348.475 70.0999C347.279 69.5009 346.682 68.3049 346.98 67.1079V56.6389C346.98 54.2459 346.383 51.8529 345.785 48.8609C345.486 46.4679 344.888 43.7759 343.992 41.0839C343.394 38.9899 342.796 37.1949 342.199 35.1009C338.314 22.2389 332.934 11.1709 330.543 6.68386C300.957 23.1359 287.807 48.2629 287.807 48.5619C287.21 49.7589 285.715 50.3569 284.52 49.7589C283.324 49.1599 282.727 47.6649 283.324 46.4679C283.922 45.2719 297.669 18.3499 330.543 1.2989C331.739 0.700905 333.233 1.29885 333.831 2.19685C334.13 2.79485 341.9 16.5549 347.279 33.9049C347.877 35.9989 348.475 37.7929 349.072 39.8869C349.969 42.8789 350.567 45.5709 350.866 48.2629C351.463 51.5529 351.762 54.2459 352.061 56.6389C352.36 60.2279 352.659 64.1169 352.061 68.0059V68.9029C352.061 69.2019 351.762 69.5009 351.463 69.7999H351.164Z" fill="#E3D89E"/>
<path d="M329.049 67.7076C328.451 68.0066 327.256 67.7076 326.957 67.1086C322.773 59.6306 321.877 49.7596 321.877 42.5806C318.589 49.1606 312.911 58.1346 305.738 61.4256C304.842 61.7246 303.945 61.4256 303.646 60.5276C303.348 59.6306 303.647 58.7336 304.543 58.4336C314.704 53.9466 322.175 34.2046 322.175 33.9056C322.175 33.3066 323.072 32.7086 323.969 33.0076C324.566 33.0076 325.164 33.9056 325.164 34.8026C325.164 34.8026 323.072 54.2466 329.647 65.3136C329.946 65.9126 329.647 66.8096 329.348 67.1086L329.049 67.7076ZM214.887 64.1176C210.105 61.1266 206.818 53.6476 206.818 53.6476C206.818 53.6476 208.312 62.6216 205.323 66.5106C205.323 66.5106 211.3 69.8006 212.197 73.3906C211.599 70.6986 212.197 66.5106 214.887 64.1176Z" fill="#E3D89E"/>
<path d="M242.68 50.9552C242.381 51.8532 241.485 52.7502 240.588 52.7502C239.393 52.7502 238.197 52.1522 237.899 50.9552C236.404 47.6652 234.611 44.6732 232.519 41.9812C231.324 39.8872 229.829 38.0932 227.737 35.6992C226.243 33.9052 224.45 31.8112 222.358 30.0162C220.864 28.5202 219.37 27.0252 217.875 25.8282C208.013 16.8542 197.852 9.97422 193.668 6.98322C176.036 35.9992 177.53 64.4162 177.53 64.7152C177.53 66.2112 176.633 67.4072 175.139 67.4072C173.645 67.4072 172.449 66.5102 172.449 65.0142C172.449 63.8182 170.955 33.3062 190.679 2.1972C191.277 1.00021 193.07 0.701256 194.266 1.29926C194.863 1.59926 208.312 9.67521 221.461 21.9392C222.956 23.4352 224.45 24.6323 225.944 26.1273C228.036 28.2213 230.128 30.3152 231.623 32.4092C233.715 35.1012 235.508 37.1952 236.703 38.9902C238.795 41.9812 240.887 45.2722 242.68 48.8612V50.9552Z" fill="#E3D89E"/>
<path d="M226.542 41.3832C226.542 41.3832 226.542 41.6822 226.243 41.9812C221.163 47.0662 217.875 51.5532 216.68 55.4422C216.68 56.3392 215.484 56.6392 214.887 56.3402C213.99 56.3402 213.691 55.1432 213.99 54.5452C215.186 50.0582 218.772 45.2722 224.45 39.8872C225.048 39.2892 225.944 39.2892 226.542 39.8872C226.841 40.1862 227.14 40.7852 226.841 41.3832H226.542ZM211.599 49.7592C211.599 50.3572 210.703 50.9552 210.105 50.6562C209.208 50.6562 208.611 50.0582 208.611 49.1602C208.611 41.0842 211.599 34.5032 213.99 30.3152C214.289 29.7172 215.186 29.4182 216.082 29.7172C216.68 30.0162 216.979 30.9132 216.68 31.8112C214.588 35.6992 211.898 41.9812 211.599 49.4592V49.7592ZM208.013 44.3742C208.013 44.9722 207.415 45.2722 206.818 45.2722C205.921 45.2722 205.024 45.2722 205.024 44.0752C202.634 35.1012 203.231 27.3242 204.128 22.5382C204.128 21.6402 205.024 21.0422 205.921 21.3412C206.818 21.3412 207.415 22.2392 207.116 23.1362C206.22 27.9222 205.921 35.1012 208.013 43.4772V44.3742ZM203.829 45.2722C203.829 45.8702 203.231 46.1692 202.634 46.1692C201.737 46.1692 201.139 45.8702 200.841 44.9732C199.346 36.8962 190.679 27.6232 190.679 27.3242C190.082 26.7262 190.082 25.8282 190.679 25.2302C191.277 24.6322 192.174 24.6322 192.771 25.2302C193.07 25.5292 202.036 35.4002 203.53 44.3742V44.9732L203.829 45.2722Z" fill="#E3D89E"/>
<path d="M203.828 51.2536C203.828 51.5526 203.529 51.8526 202.931 52.1516C202.035 52.4506 201.138 52.1516 200.84 51.2536C196.954 42.8786 187.391 41.0836 187.092 41.0836C186.196 41.0836 185.598 40.1856 185.897 39.2886C185.897 38.3916 186.793 37.7926 187.69 38.0916C188.288 38.0916 199.046 40.4856 203.529 50.0576V51.2536H203.828Z" fill="#E3D89E"/>
<path d="M234.61 52.4507C234.61 52.7497 234.311 53.0487 234.012 53.3477C233.415 53.6467 232.219 53.3478 231.92 52.7498C221.759 35.6988 202.633 22.2378 197.253 18.9478C185.299 42.5788 185.598 64.7147 185.598 65.0137C185.598 65.9117 185 66.5098 184.104 66.5098C183.207 66.5098 182.609 65.9117 182.609 65.0137C182.609 64.1167 182.31 40.7847 195.161 15.9567C195.161 15.6577 195.759 15.3577 196.058 15.0587H197.253C198.15 15.6577 222.058 30.3147 234.311 50.9547V52.1517L234.61 52.4507Z" fill="#E3D89E"/>
<path d="M222.656 60.2282C222.357 60.8262 221.162 61.1262 220.564 60.8262C213.093 56.6392 207.414 48.2632 203.828 42.2802C204.127 49.7592 203.828 60.2282 199.345 66.5102C198.748 67.1082 197.851 67.4072 197.253 66.8092C196.656 66.2112 196.357 65.3132 196.954 64.7152C203.529 55.7412 200.242 34.8022 199.943 34.8022C199.943 34.2042 200.242 33.3062 201.138 33.0072C201.736 33.0072 202.633 33.0072 202.932 33.9052C202.932 33.9052 210.702 51.5532 222.058 58.1342C222.656 58.4332 222.955 59.3312 222.656 59.9292V60.2282ZM203.23 458.372C205.92 463.158 205.023 471.533 205.023 471.533C205.023 471.533 208.311 463.158 212.794 461.064C212.794 461.064 209.207 455.081 210.104 451.791C209.506 454.483 206.518 457.773 203.23 458.671V458.372Z" fill="#E3D89E"/>
<path d="M417.21 127.533C416.314 127.533 415.716 126.934 415.716 126.037C415.716 117.661 419.9 108.388 423.486 102.406C417.21 106.294 407.946 111.38 400.176 110.781C399.279 110.781 398.681 109.884 398.681 108.987C398.681 108.089 399.578 107.491 400.474 107.491C411.532 108.687 427.969 95.2272 427.969 95.2272C428.567 94.6282 429.463 94.6282 430.061 95.2272C430.659 95.8252 430.659 96.7223 430.061 97.3203C430.061 97.3203 418.705 113.174 418.406 126.037C418.406 126.635 417.808 127.234 417.21 127.533ZM308.726 91.6372C308.128 92.2352 306.933 92.8342 306.036 92.8342C303.944 92.8342 302.151 91.0393 302.151 88.9453C302.151 66.5103 283.921 48.2632 261.507 48.2632C250.748 48.2632 240.288 52.4512 232.817 60.2282C225.047 68.0062 220.863 78.1763 220.863 88.9453C220.863 91.0393 219.07 92.8342 216.978 92.8342C214.886 92.8342 213.093 91.0393 213.093 88.9453C213.093 75.7833 218.173 63.5192 227.438 54.5452C236.702 45.2722 248.955 40.1862 261.806 40.1862C288.703 40.1862 310.519 62.0233 310.519 88.9453C310.519 90.1413 310.22 91.0392 309.324 91.6372H308.726Z" fill="#E3D89E"/>
<path d="M294.979 93.4329C294.68 93.7319 294.082 94.0309 293.186 94.0309C291.99 94.0309 290.795 92.8349 290.795 91.6379C290.795 83.5609 287.806 76.0829 282.128 70.3999C276.45 64.7159 268.978 61.7249 260.909 61.7249C252.84 61.7249 245.369 64.7159 239.691 70.3999C234.012 76.0829 231.024 83.5609 231.024 91.6379C231.024 92.8349 229.828 94.0309 228.633 94.0309C227.438 94.0309 226.242 92.8349 226.242 91.6379C226.242 82.3649 229.828 73.6899 236.403 67.1089C242.978 60.5279 251.645 56.9389 260.909 56.9389C270.174 56.9389 278.841 60.5279 285.415 67.1089C291.99 73.6899 295.576 82.3649 295.576 91.6379C295.576 92.2359 295.576 92.8349 294.979 93.4329ZM216.978 91.3389C216.978 92.2359 216.081 93.1339 215.185 93.7319C213.391 94.9279 210.702 94.3299 209.805 92.2359C198.449 72.7929 173.644 66.2119 154.218 77.2799C144.655 82.6639 138.08 91.6379 135.091 102.108C132.402 112.577 133.597 123.645 139.275 132.918C140.471 134.713 139.574 137.405 137.781 138.302C135.988 139.499 133.298 138.901 132.402 136.807C125.827 125.44 124.034 112.278 127.62 99.7149C130.907 87.1509 138.977 76.6809 150.333 70.1009C173.644 56.6399 203.529 64.7159 216.978 88.0479C217.575 88.9459 217.575 90.1419 217.276 91.0399L216.978 91.3389Z" fill="#E3D89E"/>
<path d="M205.92 99.4145C205.92 100.013 205.322 100.611 204.725 100.91C203.529 101.508 202.035 100.91 201.437 100.013C197.552 93.1335 190.977 88.0475 183.207 86.2534C175.437 84.1595 167.368 85.3554 160.494 89.2444C153.62 93.1334 148.54 99.7144 146.747 107.491C144.655 115.268 145.85 123.345 149.735 130.225C150.333 131.421 149.735 132.917 148.839 133.515C147.643 134.114 146.149 133.515 145.551 132.618C141.069 124.541 139.574 115.268 141.965 106.294C144.356 97.3205 150.034 89.8424 158.103 85.3554C166.172 80.8684 175.437 79.3734 184.402 81.7664C193.368 84.1595 200.839 89.8425 205.322 97.9195C205.47 98.1955 205.547 98.5036 205.547 98.8164C205.547 99.1293 205.47 99.4374 205.322 99.7135L205.92 99.4145ZM135.988 387.777C136.885 387.777 138.08 387.777 138.977 388.076C140.77 389.272 141.666 391.665 140.471 393.46C129.114 412.904 135.988 438.031 155.414 449.099C164.977 454.483 175.736 455.979 186.196 453.286C196.656 450.594 205.621 443.714 211.001 434.142C212.196 432.347 214.587 431.45 216.38 432.646C218.173 433.843 219.07 436.236 217.874 438.031C211.299 449.398 200.84 457.474 188.288 460.765C175.736 464.055 162.586 462.26 151.23 455.979C127.919 442.518 119.85 412.605 133.298 389.272C133.896 388.375 134.793 387.777 135.689 387.478L135.988 387.777Z" fill="#E3D89E"/>
<path d="M148.54 393.162H150.333C151.528 393.76 151.827 395.256 151.23 396.453C147.345 403.333 146.149 411.409 148.241 419.186C150.333 426.964 155.115 433.246 161.988 437.433C168.862 441.322 176.931 442.519 184.701 440.425C192.472 438.331 198.748 433.545 202.931 426.665C203.529 425.468 205.023 425.169 206.219 425.767C207.414 426.366 207.713 427.861 207.115 429.058C202.633 437.134 195.161 442.818 186.196 445.211C177.23 447.604 167.966 446.407 159.896 441.621C151.827 437.134 146.149 429.656 143.758 420.682C141.367 411.708 142.563 402.435 147.345 394.359C147.643 393.76 148.241 393.461 148.839 393.162H148.54ZM215.185 434.143C215.782 433.545 216.978 432.946 217.874 432.946C219.966 432.946 221.759 434.741 221.759 436.835C221.759 459.27 239.989 477.517 262.404 477.517C273.162 477.517 283.622 473.329 291.094 465.552C298.864 457.774 303.048 447.604 303.048 436.835C303.048 434.741 304.841 432.946 306.933 432.946C309.025 432.946 310.818 434.741 310.818 436.835C310.818 449.997 305.737 462.261 296.473 471.235C287.208 480.508 274.955 485.594 262.105 485.594C235.208 485.594 213.391 463.757 213.391 436.835C213.391 435.639 213.69 434.741 214.587 434.143H215.185Z" fill="#E3D89E"/>
<path d="M228.634 432.348C228.933 432.049 229.531 431.75 230.427 431.75C231.623 431.75 232.818 432.946 232.818 434.143C232.818 442.22 235.806 449.698 241.485 455.381C247.163 461.065 254.634 464.056 262.703 464.056C270.772 464.056 278.244 461.065 283.922 455.381C289.6 449.698 292.589 442.22 292.589 434.143C292.589 432.946 293.784 431.75 294.98 431.75C296.175 431.75 297.371 432.946 297.371 434.143C297.371 443.416 293.784 452.091 287.209 458.672C280.635 465.253 271.968 468.842 262.703 468.842C253.439 468.842 244.772 465.253 238.197 458.672C231.623 452.091 228.036 443.416 228.036 434.143C228.036 433.545 228.036 432.946 228.634 432.348ZM306.934 434.442C306.934 433.545 307.83 432.647 308.727 432.049C310.52 430.853 313.21 431.451 314.106 433.545C325.463 452.988 350.268 459.569 369.693 448.501C379.257 443.117 385.832 434.143 388.82 423.673C391.51 413.204 390.314 402.136 384.636 392.863C383.441 391.068 384.337 388.376 386.13 387.479C387.924 386.282 390.613 386.88 391.51 388.974C398.085 400.341 399.878 413.503 396.291 426.066C393.004 438.63 384.935 449.1 373.578 455.68C350.268 469.141 320.382 461.065 306.934 437.733C306.336 436.835 306.336 435.639 306.635 434.741L306.934 434.442Z" fill="#E3D89E"/>
<circle cx="261.705" cy="261.894" r="161" stroke="#E3D89E" stroke-width="13"/>
<path d="M346.5 261.5C346.5 309.068 308.597 347.5 262 347.5C215.403 347.5 177.5 309.068 177.5 261.5C177.5 213.932 215.403 175.5 262 175.5C308.597 175.5 346.5 213.932 346.5 261.5Z" stroke="#E3D89E" stroke-width="9"/>
</svg>
