<svg xmlns="http://www.w3.org/2000/svg" version="1.1" width="531" height="531">
<path d="M0 0 C1.65457794 -0.00418072 3.309153 -0.00966226 4.96372283 -0.01631981 C9.47748114 -0.0306963 13.99105565 -0.02655426 18.50482368 -0.019153 C23.38565378 -0.01440422 28.26644509 -0.02694623 33.14726257 -0.03717041 C42.69637644 -0.05433024 52.24542442 -0.05520428 61.79454969 -0.04995751 C69.55918274 -0.04590938 77.32379637 -0.04736699 85.0884285 -0.05270576 C86.74866996 -0.0538284 86.74866996 -0.0538284 88.44245166 -0.05497371 C90.69126276 -0.05650525 92.94007384 -0.0580436 95.18888493 -0.05958868 C116.25806558 -0.0733035 137.32720905 -0.06788315 158.39638884 -0.05640347 C177.65248144 -0.04647184 196.90847794 -0.05941238 216.16455571 -0.08333766 C235.95947692 -0.10774625 255.7543534 -0.11733221 275.54928935 -0.11068493 C286.65353797 -0.10719667 297.75771271 -0.10939884 308.86194992 -0.12693596 C318.31446093 -0.14167992 327.76684601 -0.14226466 337.21935461 -0.12486505 C342.03746609 -0.11637085 346.85535281 -0.11416679 351.67345238 -0.1295166 C356.09267513 -0.14342081 360.51148179 -0.13852745 364.93068083 -0.11927737 C366.52072239 -0.11553456 368.11079775 -0.11838917 369.70080905 -0.12888902 C383.10799066 -0.21105887 395.60035157 1.76244684 407.62661743 8.13768005 C408.28975952 8.47984558 408.95290161 8.82201111 409.63613892 9.17454529 C415.42633976 12.25884724 420.4740791 15.95247765 425.31411743 20.38768005 C426.26157837 21.23266052 426.26157837 21.23266052 427.22817993 22.0947113 C440.47884567 34.55734186 449.04620109 52.98186506 449.65950119 71.17384734 C449.72190513 74.80758107 449.7168787 78.43944794 449.70179749 82.07356262 C449.7059782 83.72814056 449.71145975 85.38271562 449.7181173 87.03728545 C449.73249379 91.55104376 449.72835174 96.06461827 449.72095048 100.57838631 C449.71620171 105.45921641 449.72874372 110.34000771 449.7389679 115.2208252 C449.75612773 124.76993906 449.75700177 134.31898704 449.75175499 143.86811231 C449.74770686 151.63274536 449.74916448 159.39735899 449.75450325 167.16199112 C449.75525167 168.26881876 449.75600009 169.37564641 449.7567712 170.51601429 C449.75830274 172.76482538 449.75984108 175.01363647 449.76138616 177.26244755 C449.77510098 198.3316282 449.76968064 219.40077167 449.75820095 240.46995147 C449.74826932 259.72604406 449.76120986 278.98204056 449.78513514 298.23811834 C449.80954374 318.03303954 449.8191297 337.82791602 449.81248242 357.62285197 C449.80899416 368.72710059 449.81119633 379.83127533 449.82873344 390.93551254 C449.84347741 400.38802355 449.84406215 409.84040864 449.82666253 419.29291724 C449.81816834 424.11102871 449.81596427 428.92891543 449.83131409 433.747015 C449.8452183 438.16623775 449.84032493 442.58504441 449.82107485 447.00424345 C449.81733204 448.59428501 449.82018665 450.18436037 449.8306865 451.77437167 C449.91285636 465.18155328 447.93935065 477.67391419 441.56411743 489.70018005 C441.2219519 490.36332214 440.87978638 491.02646423 440.5272522 491.70970154 C437.44295025 497.49990239 433.74931984 502.54764173 429.31411743 507.38768005 C428.75079712 508.01932068 428.18747681 508.6509613 427.60708618 509.30174255 C415.14445563 522.5524083 396.71993243 531.11976371 378.52795015 531.73306381 C374.89421642 531.79546775 371.26234955 531.79044132 367.62823486 531.77536011 C365.97365693 531.77954083 364.31908186 531.78502237 362.66451204 531.79167992 C358.15075373 531.80605641 353.63717922 531.80191436 349.12341118 531.79451311 C344.24258108 531.78976433 339.36178977 531.80230634 334.48097229 531.81253052 C324.93185843 531.82969035 315.38281045 531.83056439 305.83368517 531.82531761 C298.06905213 531.82126948 290.30443849 531.8227271 282.53980637 531.82806587 C280.8795649 531.82918851 280.8795649 531.82918851 279.1857832 531.83033382 C276.93697211 531.83186536 274.68816102 531.83340371 272.43934993 531.83494879 C251.37016929 531.8486636 230.30102581 531.84324326 209.23184602 531.83176357 C189.97575342 531.82183195 170.71975693 531.83477249 151.46367915 531.85869776 C131.66875794 531.88310636 111.87388147 531.89269232 92.07894552 531.88604504 C80.97469689 531.88255678 69.87052216 531.88475895 58.76628494 531.90229607 C49.31377393 531.91704003 39.86138885 531.91762477 30.40888025 531.90022516 C25.59076878 531.89173096 20.77288206 531.8895269 15.95478249 531.90487671 C11.53555973 531.91878092 7.11675307 531.91388755 2.69755404 531.89463747 C1.10751247 531.89089466 -0.48256288 531.89374927 -2.07257418 531.90424912 C-15.47975579 531.98641898 -27.9721167 530.01291327 -39.99838257 523.63768005 C-40.66152466 523.29551453 -41.32466675 522.953349 -42.00790405 522.60081482 C-47.7981049 519.51651287 -52.84584424 515.82288246 -57.68588257 511.38768005 C-58.31752319 510.82435974 -58.94916382 510.26103943 -59.59994507 509.6806488 C-72.85061081 497.21801825 -81.41796622 478.79349505 -82.03126633 460.60151277 C-82.09367027 456.96777904 -82.08864384 453.33591217 -82.07356262 449.70179749 C-82.07774334 448.04721955 -82.08322488 446.39264448 -82.08988243 444.73807466 C-82.10425893 440.22431635 -82.10011688 435.71074184 -82.09271562 431.1969738 C-82.08796685 426.3161437 -82.10050886 421.4353524 -82.11073303 416.55453491 C-82.12789287 407.00542105 -82.1287669 397.45637307 -82.12352013 387.9072478 C-82.119472 380.14261475 -82.12092962 372.37800111 -82.12626839 364.61336899 C-82.12701681 363.50654134 -82.12776523 362.3997137 -82.12853633 361.25934582 C-82.13006787 359.01053473 -82.13160622 356.76172364 -82.1331513 354.51291256 C-82.14686612 333.44373191 -82.14144577 312.37458843 -82.12996609 291.30540864 C-82.12003446 272.04931605 -82.132975 252.79331955 -82.15690028 233.53724177 C-82.18130887 213.74232057 -82.19089484 193.94744409 -82.18424755 174.15250814 C-82.18075929 163.04825951 -82.18296146 151.94408478 -82.20049858 140.83984756 C-82.21524254 131.38733655 -82.21582729 121.93495147 -82.19842767 112.48244287 C-82.18993347 107.6643314 -82.18772941 102.84644468 -82.20307922 98.02834511 C-82.21698343 93.60912236 -82.21209007 89.19031569 -82.19283999 84.77111666 C-82.18909718 83.1810751 -82.19195179 81.59099974 -82.20245164 80.00098844 C-82.2846215 66.59380683 -80.31111579 54.10144592 -73.93588257 42.07518005 C-73.59371704 41.41203796 -73.25155151 40.74889587 -72.89901733 40.06565857 C-69.81471539 34.27545772 -66.12108498 29.22771838 -61.68588257 24.38768005 C-60.8409021 23.44021912 -60.8409021 23.44021912 -59.97885132 22.47361755 C-43.92677402 5.40653771 -22.63545521 -0.09393489 0 0 Z " fill="#FBCB44" transform="translate(81.68588256835938,-0.3876800537109375)"/>
<path d="M0 0 C1.12140884 -0.00151062 1.12140884 -0.00151062 2.26547241 -0.00305176 C16.35618658 0.00969578 30.1308878 1.05680097 44.0625 3.25 C44.98804688 3.39453613 45.91359375 3.53907227 46.8671875 3.68798828 C64.06983823 6.46986393 81.42464061 10.39975283 97.0625 18.25 C98.54610573 18.93161007 100.03201534 19.60821608 101.51953125 20.28125 C115.5646252 26.67895069 127.23964218 34.25038098 139.0625 44.25 C140.01576172 45.00023437 140.01576172 45.00023437 140.98828125 45.765625 C146.52031804 50.19125443 150.75165721 55.66357806 155.0625 61.25 C155.97708984 62.42369141 155.97708984 62.42369141 156.91015625 63.62109375 C172.6687891 84.90781193 178.50261446 109.67894129 175.671875 135.86328125 C171.46848459 155.34437911 157.95437584 172.06765746 142.03515625 183.40625 C127.72560727 192.60398235 112.33646753 197.69795785 96.0625 202.25 C96.64257812 203.01570313 96.64257812 203.01570313 97.234375 203.796875 C104.79464577 214.35131241 106.75741518 224.67034385 106.5625 237.5 C106.55041504 238.77834717 106.53833008 240.05669434 106.52587891 241.3737793 C106.32479279 250.96071239 105.26512488 259.20904965 102.0625 268.25 C101.62200074 269.58971391 101.18190987 270.92956215 100.7421875 272.26953125 C89.88158632 304.1467405 65.42387745 329.44155819 35.65722656 344.46386719 C27.40197528 348.43189802 19.00174206 352.14813855 10.0625 354.25 C9.39186523 354.40952148 8.72123047 354.56904297 8.03027344 354.73339844 C-22.63328548 361.97067888 -52.97979825 361.5592428 -80.49609375 344.5625 C-100.65293177 331.39697177 -115.46325455 311.39741126 -120.53759766 287.66455078 C-122.84264491 273.74701885 -121.56179754 260.14698963 -115.9375 247.25 C-115.62586914 246.53295898 -115.31423828 245.81591797 -114.99316406 245.07714844 C-108.57303154 230.7259012 -100.1861427 217.41838305 -91.91967773 204.0819397 C-89.98437604 200.95767706 -88.07407381 197.82175881 -86.20703125 194.65625 C-27.55682065 95.55966033 -27.55682065 95.55966033 -0.9375 82.25 C11.93803692 80.72239392 26.75492111 88.74585482 36.64599609 96.48974609 C44.02194316 102.58175677 51.37574432 109.19711543 54.01171875 118.65625 C54.0625 122.25 54.0625 122.25 52.0703125 125.171875 C51.12778927 126.13299405 50.16549625 127.07500096 49.1875 128 C48.15898148 129.04313656 47.13297866 130.08875894 46.109375 131.13671875 C45.59310547 131.65669434 45.07683594 132.17666992 44.54492188 132.71240234 C40.76427536 136.63376462 37.46967182 141.00630033 34.0625 145.25 C32.56434845 147.08484415 31.06433866 148.91817257 29.5625 150.75 C28.81871094 151.66007813 28.07492187 152.57015625 27.30859375 153.5078125 C25.82558949 155.31836727 24.33868081 157.12573186 22.84765625 158.9296875 C18.5094016 164.1904884 14.27524369 169.51560954 10.13598633 174.93457031 C7.71192347 178.10785555 5.27205603 181.2673167 2.80859375 184.41015625 C-46.40828575 240.63249036 -46.40828575 240.63249036 -70.2890625 306.65234375 C-69.58224646 311.87492893 -68.08530181 314.3652361 -63.9375 317.5625 C-56.1935414 321.91847671 -45.69829055 321.24548895 -37.25 319.0625 C-5.64161016 309.00953578 19.36393147 285.27220481 34.625 256.1875 C41.67922986 242.53428744 47.94386852 227.04948967 43.22265625 211.48046875 C40.86271159 207.19760622 37.96069776 205.09753158 33.31640625 203.6875 C30.81090832 203.20116418 28.35770395 202.99242605 25.8125 202.8125 C22.64499028 202.54935304 21.21911638 202.34322403 18.4375 200.6875 C16.52505908 197.29726383 16.05491496 194.04326132 17.0625 190.25 C20.01623354 186.40872633 22.98760075 185.38335034 27.5625 184.0625 C60.43773938 173.87511295 93.32965805 153.08280723 110.0625 122.25 C116.20076882 108.89452675 118.90817045 93.18614979 114.5 78.8125 C107.42570424 60.90414291 94.30626598 50.55867069 77.1875 42.9375 C44.72553598 31.17591883 7.48210535 40.05667377 -22.8125 54.125 C-45.77762714 65.20226504 -65.49772712 80.80084694 -83.9375 98.25 C-84.618125 98.88808594 -85.29875 99.52617187 -86 100.18359375 C-91.12667179 105.13225611 -95.51269954 110.67722175 -99.9375 116.25 C-100.73285156 117.22839844 -101.52820313 118.20679688 -102.34765625 119.21484375 C-117.01939212 137.65333273 -132.26481031 160.7610614 -132 185.0625 C-131.99548828 185.85076172 -131.99097656 186.63902344 -131.98632812 187.45117188 C-131.97461312 189.38414761 -131.95667998 191.31708393 -131.9375 193.25 C-123.38435939 190.63524913 -121.15882389 185.06817372 -117.109375 177.48046875 C-116.72265625 176.74441406 -116.3359375 176.00835937 -115.9375 175.25 C-112.34931941 178.83818059 -112.73589601 183.68891239 -112.625 188.5625 C-112.68948212 194.26271907 -113.17563319 198.79717806 -116.9375 203.25 C-124.83504568 209.51672999 -135.34769422 209.26660267 -144.9375 208.25 C-157.70286691 204.94836664 -166.20788814 197.3459339 -172.9375 186.25 C-184.83790536 162.08765797 -183.07154812 135.02197539 -174.61083984 110.10400391 C-166.74569529 88.02538767 -154.09549416 70.0411444 -137.9375 53.25 C-137.32132813 52.57066406 -136.70515625 51.89132813 -136.0703125 51.19140625 C-108.4780308 21.69832292 -66.47899993 6.24397511 -27.28051758 1.53222656 C-25.81246498 1.3553933 -24.34575778 1.16651944 -22.8815918 0.95996094 C-15.28934482 -0.04168791 -7.64492119 0.00716576 0 0 Z " fill="#FEFEFD" transform="translate(267.9375,85.75)"/>
<path d="M0 0 C0.99 0.495 0.99 0.495 2 1 C-2.78408818 5.47578028 -7.05997037 9.15911626 -13 12 C-17.84669165 15.61193926 -21.98744742 19.96010162 -26.10546875 24.36328125 C-28 26 -28 26 -29.92236328 26.42895508 C-32.36894455 27.10140556 -33.35931546 27.98561038 -35.13671875 29.7734375 C-35.99583862 30.63146973 -35.99583862 30.63146973 -36.87231445 31.50683594 C-37.47132568 32.12333008 -38.07033691 32.73982422 -38.6875 33.375 C-39.31035889 34.00696289 -39.93321777 34.63892578 -40.57495117 35.29003906 C-44.95940674 39.79198101 -49.01727422 44.47760454 -52.9140625 49.41015625 C-55.07957247 52.09879503 -57.35551754 54.64246267 -59.6875 57.1875 C-66.35642802 64.27286765 -66.35642802 64.27286765 -71 72.6875 C-72 75 -72 75 -75 77.4375 C-78.42480761 80.3628565 -78.7068868 81.79738211 -80 86 C-84.96941176 94.48470588 -84.96941176 94.48470588 -88 96 C-86.5501913 91.10689563 -84.50437499 86.91018276 -82 82.5 C-81.60554687 81.80366455 -81.21109375 81.1073291 -80.8046875 80.38989258 C-71.33113572 63.98061353 -58.99119166 49.70310152 -46 36 C-45.2884375 35.24589844 -44.576875 34.49179688 -43.84375 33.71484375 C-38.61696833 28.3274028 -32.88443329 23.64885675 -27 19 C-25.97648437 18.18273437 -24.95296875 17.36546875 -23.8984375 16.5234375 C-18.20634014 12.02532201 -12.38286599 7.78771445 -6.3125 3.8125 C-5.71203857 3.41353516 -5.11157715 3.01457031 -4.49291992 2.60351562 C-3.03541643 1.66983859 -1.52142454 0.82543116 0 0 Z M-36 31 C-35.67 31.66 -35.34 32.32 -35 33 C-35.66 32.67 -36.32 32.34 -37 32 C-36.67 31.67 -36.34 31.34 -36 31 Z " fill="#E2B946" transform="translate(230,147)"/>
<path d="M0 0 C0.99 0 1.98 0 3 0 C4.11023773 5.85398078 4.37293566 8.83519227 1 14 C-1.26819256 17.05457063 -3.62357251 20.02946564 -6 23 C-6.5053125 23.67804688 -7.010625 24.35609375 -7.53125 25.0546875 C-8.95449407 26.93972885 -10.44728035 28.72084207 -12 30.5 C-13.59565962 32.34265362 -15.11778637 34.16018946 -16.5625 36.125 C-18.4923565 38.64220414 -20.75741083 40.75741083 -23 43 C-24.52668407 44.75226272 -26.02291166 46.52734047 -27.515625 48.30859375 C-29 50 -29 50 -31.75 52.5625 C-34.17794818 54.83725445 -34.17794818 54.83725445 -34.8671875 57.86328125 C-36.15391926 61.42619714 -37.63438583 63.04827638 -40.375 65.625 C-41.14585937 66.35976563 -41.91671875 67.09453125 -42.7109375 67.8515625 C-44.17256465 69.22339685 -45.63593306 70.59337991 -47.1015625 71.9609375 C-49.15080503 74.16197577 -50.47795049 76.41134802 -52 79 C-53.44732665 80.87912576 -54.92833386 82.73266787 -56.4375 84.5625 C-57.19933594 85.49191406 -57.96117187 86.42132813 -58.74609375 87.37890625 C-60.7425983 89.70066458 -62.80115228 91.87127498 -65 94 C-65.66 93.67 -66.32 93.34 -67 93 C-63.58203125 88.60546875 -60.1640625 84.2109375 -56.74609375 79.81640625 C-56.12750488 79.02089355 -55.50891602 78.22538086 -54.87158203 77.40576172 C-53.62848856 75.80786933 -52.38467859 74.21053407 -51.14013672 72.61376953 C-48.58337785 69.33203177 -46.02849033 66.04989596 -43.515625 62.734375 C-38.82874324 56.56062041 -34.00420848 50.55537922 -28.96582031 44.66503906 C-26.25007719 41.48802322 -23.59406946 38.27699795 -21 35 C-17.87955417 31.06580341 -14.67912148 27.20919955 -11.4375 23.375 C-10.97053711 22.8171582 -10.50357422 22.25931641 -10.02246094 21.68457031 C-7.9854339 19.26569042 -5.94726438 16.94735422 -3.70703125 14.7109375 C-0.07528327 11.21166113 -0.07528327 11.21166113 1.19921875 6.515625 C0.96491773 4.26353757 0.60065215 2.18051874 0 0 Z " fill="#E2BB4D" transform="translate(320,199)"/>
<path d="M0 0 C0.99 0.99 0.99 0.99 2 2 C1.6875 3.8125 1.6875 3.8125 1 6 C0.814375 7.2684375 0.814375 7.2684375 0.625 8.5625 C-0.08927968 11.34819077 -0.9717282 12.05285908 -3 14 C-4.07491476 16.40275063 -4.93830164 18.80976338 -5.75 21.3125 C-8.75465539 27.77250908 -13.75122549 32.95443576 -18.5 38.1875 C-18.95044678 38.68644775 -19.40089355 39.18539551 -19.86499023 39.69946289 C-24.39508484 44.61353305 -29.16375558 48.70775956 -35 52 C-35.825 52.515625 -36.65 53.03125 -37.5 53.5625 C-39.94972948 54.97109445 -42.38083954 55.95233582 -45 57 C-45.845625 57.515625 -46.69125 58.03125 -47.5625 58.5625 C-50 60 -50 60 -52 60.4375 C-54.23446174 60.90375134 -54.23446174 60.90375134 -56.25 63.0625 C-59.42038773 65.29618226 -61.16185833 65.1530056 -64.9453125 64.953125 C-69.93517423 65.06696215 -74.2772274 67.87287102 -78 71 C-78.99 69.35 -79.98 67.7 -81 66 C-80.36199463 65.82984375 -79.72398926 65.6596875 -79.06665039 65.484375 C-60.78699036 60.54720903 -43.79422493 55.23144581 -29 43 C-28.15050781 42.31292969 -27.30101562 41.62585938 -26.42578125 40.91796875 C-15.91751981 31.98675114 -9.28727044 21.63159444 -4 9 C-3.21196967 7.22754549 -2.42076972 5.45649332 -1.625 3.6875 C-1.08233162 2.45877525 -0.54022303 1.22980183 0 0 Z " fill="#E3BC4D" transform="translate(444,221)"/>
<path d="M0 0 C1.42944945 2.35438733 2.08661261 3.48032433 1.625 6.25 C1.41875 6.8275 1.2125 7.405 1 8 C1.66 8.33 2.32 8.66 3 9 C2.319375 9.9590625 2.319375 9.9590625 1.625 10.9375 C-0.12728755 14.23988807 -0.74391882 17.09246007 -1.46875 20.72265625 C-2.42371423 24.81636323 -4.20590958 28.45593529 -6.125 32.1875 C-7.08002671 33.96585028 -7.08002671 33.96585028 -7.3671875 35.93359375 C-8.29304188 38.95690836 -10.26179908 40.25391749 -12.625 42.2421875 C-14.24030645 43.99926025 -14.24030645 43.99926025 -14.359375 46.78125 C-15.20413449 51.02565133 -17.43514204 53.49693829 -20.25 56.625 C-20.78141602 57.22965088 -21.31283203 57.83430176 -21.86035156 58.45727539 C-27.50011862 64.75875095 -33.67392536 70.40258317 -40 76 C-40.79921875 76.74765625 -41.5984375 77.4953125 -42.421875 78.265625 C-43.10765625 78.89984375 -43.7934375 79.5340625 -44.5 80.1875 C-45.0671875 80.71730469 -45.634375 81.24710937 -46.21875 81.79296875 C-48.4630958 83.31380834 -50.31951506 83.70845375 -53 84 C-53.66 83.67 -54.32 83.34 -55 83 C-54.28457031 82.48953125 -53.56914062 81.9790625 -52.83203125 81.453125 C-26.3004321 62.09501126 -6.27018186 35.64902313 -0.39453125 2.59375 C-0.26433594 1.7378125 -0.13414062 0.881875 0 0 Z " fill="#E3BE55" transform="translate(373,338)"/>
<path d="M0 0 C0.66 0.33 1.32 0.66 2 1 C-10.50015936 21.78000768 -26.89643986 37.23166175 -48 49 C-48 46 -48 46 -46 44 C-43.68234271 43.28072705 -41.34904126 42.6090107 -39 42 C-39 41.34 -39 40.68 -39 40 C-38.38125 39.731875 -37.7625 39.46375 -37.125 39.1875 C-34.7004767 38.04443152 -34.7004767 38.04443152 -33 35 C-32.34 35 -31.68 35 -31 35 C-31 34.34 -31 33.68 -31 33 C-29.27734375 31.484375 -29.27734375 31.484375 -26.9375 29.75 C-18.39228401 23.36803724 -18.39228401 23.36803724 -12 15 C-10.83177376 13.83452253 -9.64206085 12.69038449 -8.4375 11.5625 C-5.32864366 8.57747651 -4.16865321 6.187674 -3 2 C-2.01 1.34 -1.02 0.68 0 0 Z " fill="#E7BF4D" transform="translate(377,207)"/>
<path d="M0 0 C0.66 0.66 1.32 1.32 2 2 C1.125 3.16666667 0.25 4.33333333 -0.625 5.5 C-1.1715625 6.23089844 -1.718125 6.96179688 -2.28125 7.71484375 C-3.37701919 9.17171869 -4.48042444 10.62290325 -5.59375 12.06640625 C-8.31800969 15.61767335 -10.77306478 19.14606768 -12.9375 23.078125 C-16.23787995 29.04792991 -19.66909696 34.72171192 -24 40 C-24.94620088 41.43178783 -25.88272134 42.8699938 -26.8125 44.3125 C-29.82681802 48.90721494 -33.28222499 52.9632443 -37 57 C-37 52.88010123 -34.97060567 50.35994939 -32.8125 47 C-32.14408081 45.9469165 -32.14408081 45.9469165 -31.4621582 44.87255859 C-7.63734142 7.63734142 -7.63734142 7.63734142 0 0 Z " fill="#E1BC51" transform="translate(252,294)"/>
<path d="M0 0 C1.92701519 3.1753859 2.52663978 6.36713122 3.18969727 9.98950195 C6.70326243 28.73968284 16.90384278 44.56355544 32.1640625 56.14453125 C37.86326192 59.8733463 43.91731391 62.95054671 50 66 C47 67 47 67 44.21484375 65.84765625 C36.86759139 61.84563679 30.28681109 57.58580384 24 52 C23.36449219 51.43539062 22.72898437 50.87078125 22.07421875 50.2890625 C9.87057749 38.76189803 1.05320556 21.48157647 -0.171875 4.63671875 C-0.1875 2.6875 -0.1875 2.6875 0 0 Z " fill="#F9EED0" transform="translate(0,459)"/>
<path d="M0 0 C-2.75 2.0625 -2.75 2.0625 -6 4 C-8.125 3.625 -8.125 3.625 -10 3 C-10.598125 3.31839844 -11.19625 3.63679688 -11.8125 3.96484375 C-14.41245926 5.19518161 -16.0247703 5.11064479 -18.875 4.9375 C-22.33029051 4.85212218 -23.7460778 4.86751885 -26.875 6.5 C-32.2307008 9.07073638 -38.63814803 8.97983625 -44.33203125 7.3203125 C-46.25 6.5 -46.25 6.5 -49 5 C-49 4.67 -49 4.34 -49 4 C-48.09628662 3.97812622 -48.09628662 3.97812622 -47.17431641 3.95581055 C-33.18861136 3.58022177 -19.2486569 2.97593419 -5.65234375 -0.62109375 C-3.52375977 -1.10920875 -2.0527984 -0.65982806 0 0 Z " fill="#E0BB53" transform="translate(278,441)"/>
<path d="M0 0 C1 3 1 3 -0.15234375 5.78515625 C-4.15436321 13.13240861 -8.41419616 19.71318891 -14 26 C-14.56460938 26.63550781 -15.12921875 27.27101563 -15.7109375 27.92578125 C-22.35311626 34.95775924 -30.21683536 39.83435835 -38.875 44 C-39.51759766 44.31517578 -40.16019531 44.63035156 -40.82226562 44.95507812 C-43.53126901 46.2056065 -45.44104495 47.07143196 -48.4453125 46.6875 C-48.95835937 46.460625 -49.47140625 46.23375 -50 46 C-49.24976563 45.70867188 -48.49953125 45.41734375 -47.7265625 45.1171875 C-28.21660474 37.3033757 -12.21294854 25.08774642 -2.93359375 5.78125 C-2.26226521 4.19860108 -1.62645532 2.60094139 -1 1 C-0.67 0.67 -0.34 0.34 0 0 Z " fill="#F9F2E0" transform="translate(525,481)"/>
<path d="M0 0 C2.53271673 2.53271673 2.28237456 4.19871506 2.33032227 7.65966797 C2.21896039 21.89263047 -1.78818353 32.38326288 -7.94140625 45.1328125 C-8.46263062 46.21393311 -8.46263062 46.21393311 -8.99438477 47.31689453 C-10 49 -10 49 -12 50 C-12 48.68 -12 47.36 -12 46 C-11.34 46 -10.68 46 -10 46 C-9.896875 45.484375 -9.79375 44.96875 -9.6875 44.4375 C-8.76148287 41.15434837 -7.34962792 38.13113677 -6 35 C-5.649375 33.948125 -5.29875 32.89625 -4.9375 31.8125 C-4 29 -4 29 -2.875 26.9375 C-1.7859926 24.52612646 -1.85468491 22.61567161 -2 20 C-1.34 20 -0.68 20 0 20 C0 18.35 0 16.7 0 15 C-0.33 15 -0.66 15 -1 15 C-1.02693575 12.87506859 -1.04636628 10.75004088 -1.0625 8.625 C-1.07410156 7.44164062 -1.08570313 6.25828125 -1.09765625 5.0390625 C-1 2 -1 2 0 0 Z " fill="#E3BE51" transform="translate(311,298)"/>
<path d="M0 0 C-3.83263454 2.43341876 -7.96887415 2.5911842 -12.375 3 C-17.55034177 3.48518829 -22.08062749 4.19598858 -27 6 C-28.99422795 6.36628677 -30.99453311 6.70131344 -33 7 C-34.3303125 7.309375 -34.3303125 7.309375 -35.6875 7.625 C-38 8 -38 8 -41 7 C-37.38680317 3.38680317 -31.87356859 3.0888379 -27 2 C-26.11699219 1.78988281 -25.23398437 1.57976562 -24.32421875 1.36328125 C-16.23223627 -0.36808374 -8.22811499 -0.18582945 0 0 Z " fill="#E0B643" transform="translate(310,124)"/>
<path d="M0 0 C0.66 0.33 1.32 0.66 2 1 C1.38722388 3.96175123 0.74627478 5.38058783 -1 8 C-1.38063221 10.3260857 -1.71269945 12.66055264 -2 15 C-2.16242188 15.59425781 -2.32484375 16.18851562 -2.4921875 16.80078125 C-3.17843108 19.77274383 -3.3496373 22.70910433 -3.5625 25.75 C-3.64628906 26.92046875 -3.73007813 28.0909375 -3.81640625 29.296875 C-3.87699219 30.18890625 -3.93757812 31.0809375 -4 32 C-3.34 32 -2.68 32 -2 32 C-2.33 33.32 -2.66 34.64 -3 36 C-6.97633787 30.9863566 -7.44503982 26.83378761 -7.4296875 20.5546875 C-6.55053811 13.28172439 -3.25472347 6.50944695 0 0 Z " fill="#E3BE54" transform="translate(204,366)"/>
<path d="M0 0 C0.66 0 1.32 0 2 0 C0.57826644 3.16199759 -1.28486634 5.89343806 -3.27587891 8.72241211 C-9.72567684 17.94672463 -14.42799387 27.74059494 -19 38 C-20.13192031 34.60423907 -19.89720947 34.13211821 -18.5625 31 C-17.43307164 28.32583777 -17 26.97454511 -17 24 C-15.79296875 22.16796875 -15.79296875 22.16796875 -14.1875 20.1875 C-12.18385265 17.63825854 -10.75739933 15.50581346 -9.3125 12.5625 C-8 10 -8 10 -5 9 C-4.855625 8.4225 -4.71125 7.845 -4.5625 7.25 C-3.78434326 4.13737304 -2.14456448 2.33952489 0 0 Z " fill="#E6BC45" transform="translate(115,153)"/>
<path d="M0 0 C-0.78503906 0.71285156 -1.57007813 1.42570313 -2.37890625 2.16015625 C-10.00139762 9.10039883 -17.52159842 15.95107683 -24 24 C-24.33 23.01 -24.66 22.02 -25 21 C-22.42847553 17.24161808 -19.21000993 14.21000993 -16 11 C-14.00668997 8.70688318 -12.02547109 6.40509286 -10.0625 4.0859375 C-4.52957746 -1.50985915 -4.52957746 -1.50985915 0 0 Z " fill="#E8BD44" transform="translate(142,129)"/>
<path d="M0 0 C1.22203125 0.24363281 1.22203125 0.24363281 2.46875 0.4921875 C6.51903557 1.07464007 10.41609586 1.14653201 14.5 1.125 C15.23347656 1.12886719 15.96695313 1.13273437 16.72265625 1.13671875 C20.92430334 1.12920239 24.86141267 0.82509811 29 0 C28.34 1.32 27.68 2.64 27 4 C26.01 4 25.02 4 24 4 C23.38769531 4.16113281 22.77539062 4.32226562 22.14453125 4.48828125 C15.56859709 6.05740215 8.23952904 5.5223628 2 3 C1.34 2.01 0.68 1.02 0 0 Z " fill="#E1B948" transform="translate(117,292)"/>
<path d="M0 0 C-5.68950281 4.38446595 -9.71344762 7.27134476 -17 8 C-18.37310707 9.29233607 -19.71034824 10.62437146 -21 12 C-23.75 12.75 -23.75 12.75 -26 13 C-26 12.01 -26 11.02 -26 10 C-23.64776003 8.7254916 -21.29333069 7.45534102 -18.9375 6.1875 C-18.28072266 5.83107422 -17.62394531 5.47464844 -16.94726562 5.10742188 C-4.08655361 -1.79808359 -4.08655361 -1.79808359 0 0 Z " fill="#E1B944" transform="translate(258,136)"/>
<path d="M0 0 C0.66 0.33 1.32 0.66 2 1 C1.5968457 1.68513672 1.19369141 2.37027344 0.77832031 3.07617188 C-1.06713344 6.21588125 -2.90859259 9.35791592 -4.75 12.5 C-5.70132813 14.11648438 -5.70132813 14.11648438 -6.671875 15.765625 C-9.98591142 21.42710389 -13.15813672 27.08662792 -16 33 C-17.39852912 28.80441263 -15.77263136 26.95433149 -14 23 C-13.87625 22.13375 -13.7525 21.2675 -13.625 20.375 C-12.7279369 16.9661602 -10.49432198 15.43493336 -8 13 C-6.20679176 9.83354526 -6.20679176 9.83354526 -5 7 C-4.34 7 -3.68 7 -3 7 C-2.690625 6.030625 -2.38125 5.06125 -2.0625 4.0625 C-1 1 -1 1 0 0 Z " fill="#E6BF53" transform="translate(173,292)"/>
<path d="M0 0 C0.99 0 1.98 0 3 0 C1.27425728 4.25121986 -1.75479192 7.35609685 -4.75 10.75 C-9.05567355 15.69264558 -13.1667105 20.6759868 -17 26 C-18 23 -18 23 -17.25 20.9375 C-16 19 -16 19 -13 17 C-12.67 16.01 -12.34 15.02 -12 14 C-10.35697047 12.31002677 -8.68528688 10.64783606 -7 9 C-3.0796061 4.79662969 -3.0796061 4.79662969 0 0 Z " fill="#E6BD48" transform="translate(252,178)"/>
<path d="M0 0 C0.66 0 1.32 0 2 0 C1.99214478 1.08099976 1.99214478 1.08099976 1.98413086 2.18383789 C1.96323125 5.47671625 1.95029869 8.76958059 1.9375 12.0625 C1.92912109 13.19623047 1.92074219 14.32996094 1.91210938 15.49804688 C1.89575153 21.10878867 1.98187903 26.47649331 3 32 C0.4375 30.6875 0.4375 30.6875 -2 28 C-2.08247516 25.06127979 -1.74825709 22.36379127 -1.296875 19.4609375 C-0.7706083 16.99951915 -0.7706083 16.99951915 -2 15 C-2.1894104 11.49590765 -1.76793836 8.41305937 -1 5 C-0.814375 4.071875 -0.62875 3.14375 -0.4375 2.1875 C-0.293125 1.465625 -0.14875 0.74375 0 0 Z " fill="#E4C05A" transform="translate(146,346)"/>
<path d="M0 0 C2 2 2 2 2.23046875 4.53125 C2.20919922 6.00078125 2.20919922 6.00078125 2.1875 7.5 C2.17783203 8.96953125 2.17783203 8.96953125 2.16796875 10.46875 C2 13 2 13 1 15 C1.66 15.33 2.32 15.66 3 16 C0.66666667 18.33333333 -1.66666667 20.66666667 -4 23 C-4.99 22.67 -5.98 22.34 -7 22 C-6.01 21.67 -5.02 21.34 -4 21 C-2.81608777 18.62374655 -2.81608777 18.62374655 -2 16 C-1.67 15.01 -1.34 14.02 -1 13 C-0.77548542 10.77425665 -0.59217122 8.54418481 -0.4375 6.3125 C-0.35371094 5.13300781 -0.26992187 3.95351563 -0.18359375 2.73828125 C-0.12300781 1.83464844 -0.06242188 0.93101562 0 0 Z " fill="#E6C158" transform="translate(155,268)"/>
<path d="M0 0 C-1.74456425 3.83993762 -4.10567981 7.23371225 -6.5 10.6875 C-6.90347656 11.28111328 -7.30695313 11.87472656 -7.72265625 12.48632812 C-10.757935 16.8789675 -10.757935 16.8789675 -13 18 C-12.67 16.02 -12.34 14.04 -12 12 C-11.01 11.67 -10.02 11.34 -9 11 C-8.71125 10.0925 -8.4225 9.185 -8.125 8.25 C-6.81955007 4.4787002 -4.4594042 0 0 0 Z " fill="#E6BE49" transform="translate(227,213)"/>
<path d="M0 0 C0.66 0.33 1.32 0.66 2 1 C-2.50949221 5.04698018 -7.32957914 8.73183166 -13 11 C-13.99 10.67 -14.98 10.34 -16 10 C-13.30840491 6.87427667 -10.0365868 5.1963218 -6.4375 3.25 C-4.70306641 2.29867188 -4.70306641 2.29867188 -2.93359375 1.328125 C-1.96550781 0.88984375 -0.99742187 0.4515625 0 0 Z " fill="#E1BE5B" transform="translate(313,424)"/>
<path d="M0 0 C0.66 0.33 1.32 0.66 2 1 C-1.96 6.94 -5.92 12.88 -10 19 C-11 17 -11 17 -10.375 14.1875 C-8.80285009 10.54297065 -6.8563334 8.71700007 -4 6 C-2.95650161 4.36021682 -1.94392019 2.69905634 -1 1 C-0.67 0.67 -0.34 0.34 0 0 Z " fill="#E6BF51" transform="translate(201,248)"/>
<path d="M0 0 C-1.13332909 3.39998727 -1.53563161 3.66252304 -4.5625 5.25 C-9.10345725 7.41783493 -12.15191793 7.03887473 -17 6 C-17 5.67 -17 5.34 -17 5 C-16.00419922 4.70996094 -16.00419922 4.70996094 -14.98828125 4.4140625 C-0.01980198 0 -0.01980198 0 0 0 Z " fill="#E1BF5E" transform="translate(295,434)"/>
<path d="M0 0 C0.99 0.66 1.98 1.32 3 2 C-12.96666667 12 -12.96666667 12 -18 12 C-18 11.34 -18 10.68 -18 10 C-17.030625 9.608125 -16.06125 9.21625 -15.0625 8.8125 C-11.17306794 7.16147578 -7.56416547 5.11575231 -3.91796875 2.98828125 C-2 2 -2 2 0 2 C0 1.34 0 0.68 0 0 Z " fill="#E6C25B" transform="translate(255,391)"/>
<path d="M0 0 C-3.12147545 1.67333158 -6.24773498 3.33751716 -9.375 5 C-10.26445312 5.47695312 -11.15390625 5.95390625 -12.0703125 6.4453125 C-12.92109375 6.89648438 -13.771875 7.34765625 -14.6484375 7.8125 C-15.43395996 8.23144531 -16.21948242 8.65039062 -17.02880859 9.08203125 C-19 10 -19 10 -21 10 C-20 7 -20 7 -18.29296875 5.9375 C-17.59816406 5.628125 -16.90335938 5.31875 -16.1875 5 C-13.80232103 3.89229233 -11.90532832 2.92696756 -9.8125 1.3125 C-6.46867736 -1.10888881 -3.84837518 -1.28279173 0 0 Z " fill="#E8BC40" transform="translate(186,102)"/>
<path d="M0 0 C-2.75 2.0625 -2.75 2.0625 -6 4 C-8.125 3.625 -8.125 3.625 -10 3 C-12.21771064 3.85790183 -12.21771064 3.85790183 -14 5 C-15.32 4.01 -16.64 3.02 -18 2 C-15.75256955 1.46818825 -13.50192898 0.94992874 -11.25 0.4375 C-9.99703125 0.14746094 -8.7440625 -0.14257812 -7.453125 -0.44140625 C-4.40526252 -0.93444283 -2.82358172 -1.07666879 0 0 Z " fill="#E2C062" transform="translate(278,441)"/>
<path d="M0 0 C0.33 0 0.66 0 1 0 C1.46354138 17.87209555 1.46354138 17.87209555 -1 24 C-3.625 26.125 -3.625 26.125 -6 27 C-5.71125 26.443125 -5.4225 25.88625 -5.125 25.3125 C-2.93231924 20.80532287 -1.74212436 17.09852403 -1.4375 12.0625 C-1.15588863 7.98416386 -0.78159485 4.01963065 0 0 Z " fill="#E3BB4C" transform="translate(384,175)"/>
<path d="M0 0 C-0.99 0 -1.98 0 -3 0 C-3.33 0.99 -3.66 1.98 -4 3 C-4.886875 3.144375 -5.77375 3.28875 -6.6875 3.4375 C-8.69752035 3.77882421 -10.70169755 4.16318548 -12.6875 4.625 C-15 5 -15 5 -18 4 C-15.48115349 1.48115349 -13.56355758 1.1742412 -10.125 0.3125 C-9.07570313 0.04050781 -8.02640625 -0.23148437 -6.9453125 -0.51171875 C-4.14833162 -0.97540921 -2.627808 -0.94575698 0 0 Z " fill="#E1B948" transform="translate(287,127)"/>
<path d="M0 0 C0.66 0.66 1.32 1.32 2 2 C1.2575 2.53625 0.515 3.0725 -0.25 3.625 C-3.19981987 6.17257171 -4.87709378 8.74929984 -7 12 C-11.375 16.6875 -11.375 16.6875 -14 18 C-12.31268143 14.29115966 -10.0622868 11.6722904 -7.33984375 8.68359375 C-5.78521084 6.92781556 -5.78521084 6.92781556 -5 4 C-3.37667033 2.61423077 -1.71275535 1.27358732 0 0 Z " fill="#E9BB3C" transform="translate(309,225)"/>
<path d="M0 0 C1 3 1 3 -0.29296875 5.9609375 C-0.91816406 7.08757812 -1.54335938 8.21421875 -2.1875 9.375 C-3.10595703 11.05722656 -3.10595703 11.05722656 -4.04296875 12.7734375 C-5.84086623 15.73763574 -7.76617755 18.35507497 -10 21 C-10.66 20.67 -11.32 20.34 -12 20 C-11.54109375 19.38253906 -11.0821875 18.76507813 -10.609375 18.12890625 C-7.01352802 13.1657309 -4.02594347 8.40331232 -1.7265625 2.71484375 C-1 1 -1 1 0 0 Z " fill="#F8EED0" transform="translate(525,481)"/>
<path d="M0 0 C0.66 0.66 1.32 1.32 2 2 C2.66 1.67 3.32 1.34 4 1 C2.48446596 4.47775179 0.4226544 6.9557984 -2.125 9.75 C-3.21167969 10.94882812 -3.21167969 10.94882812 -4.3203125 12.171875 C-4.87460938 12.77515625 -5.42890625 13.3784375 -6 14 C-6.33 13.34 -6.66 12.68 -7 12 C-5.56640625 9.1796875 -5.56640625 9.1796875 -3.5625 5.875 C-2.57443359 4.23144531 -2.57443359 4.23144531 -1.56640625 2.5546875 C-1.04949219 1.71164062 -0.53257812 0.86859375 0 0 Z " fill="#E3BD53" transform="translate(213,351)"/>
<path d="M0 0 C0 3 0 3 -1.6796875 5.04296875 C-2.76636719 6.10451172 -2.76636719 6.10451172 -3.875 7.1875 C-4.95394531 8.26064453 -4.95394531 8.26064453 -6.0546875 9.35546875 C-8 11 -8 11 -10 11 C-8.55218207 7.55571735 -6.72305391 5.63869038 -3.875 3.25 C-3.15054688 2.63640625 -2.42609375 2.0228125 -1.6796875 1.390625 C-0.84824219 0.70226562 -0.84824219 0.70226562 0 0 Z M-16 16 C-15.67 16.66 -15.34 17.32 -15 18 C-15.66 17.67 -16.32 17.34 -17 17 C-16.67 16.67 -16.34 16.34 -16 16 Z " fill="#E8BA36" transform="translate(210,162)"/>
<path d="M0 0 C0.66 0.33 1.32 0.66 2 1 C0.61211198 2.30020011 -0.78569258 3.5898193 -2.1875 4.875 C-2.96480469 5.59429687 -3.74210937 6.31359375 -4.54296875 7.0546875 C-6.97689776 8.9817092 -9.07536646 10.01300111 -12 11 C-11.9375 9.25 -11.9375 9.25 -11 7 C-9.29136698 5.93613416 -7.57440339 4.8786246 -5.7890625 3.94921875 C-3.68688533 2.83387148 -1.85579335 1.48463468 0 0 Z " fill="#E6C158" transform="translate(270,381)"/>
<path d="M0 0 C0.99 0 1.98 0 3 0 C1.6744419 3.62276315 0.05653045 6.63505348 -2.125 9.8125 C-2.66382813 10.60269531 -3.20265625 11.39289063 -3.7578125 12.20703125 C-4.37269531 13.09455078 -4.37269531 13.09455078 -5 14 C-6 11 -6 11 -4.78515625 8.30078125 C-4.21667969 7.31464844 -3.64820313 6.32851563 -3.0625 5.3125 C-2.49660156 4.31863281 -1.93070313 3.32476562 -1.34765625 2.30078125 C-0.90292969 1.54152344 -0.45820313 0.78226562 0 0 Z " fill="#E6BF4F" transform="translate(187,267)"/>
<path d="M0 0 C0.99 0.33 1.98 0.66 3 1 C2.21619539 2.81591374 1.42271553 4.62765407 0.625 6.4375 C0.18414062 7.44683594 -0.25671875 8.45617187 -0.7109375 9.49609375 C-2 12 -2 12 -4 13 C-3.40895235 8.15340923 -2.02055843 4.39251833 0 0 Z " fill="#E2BC4E" transform="translate(141,244)"/>
<path d="M0 0 C0.33 0 0.66 0 1 0 C1.06058594 0.66386719 1.12117187 1.32773437 1.18359375 2.01171875 C1.79863507 8.54908081 1.79863507 8.54908081 3 15 C3.66 15 4.32 15 5 15 C4.67 16.32 4.34 17.64 4 19 C0.47045567 14.54970497 -0.12313116 11.45119785 -0.0625 5.8125 C-0.05347656 4.72582031 -0.04445312 3.63914062 -0.03515625 2.51953125 C-0.02355469 1.68808594 -0.01195312 0.85664063 0 0 Z " fill="#E3C46B" transform="translate(197,383)"/>
<path d="M0 0 C-2.3125 2.5 -2.3125 2.5 -5 5 C-5.99 5 -6.98 5 -8 5 C-8.66 3.68 -9.32 2.36 -10 1 C-6.52674819 -0.1577506 -3.63932552 -0.06866652 0 0 Z " fill="#D9B54F" transform="translate(373,286)"/>
<path d="M0 0 C0 3 0 3 -1.96875 5.26171875 C-2.8040625 6.06222656 -3.639375 6.86273438 -4.5 7.6875 C-5.3353125 8.49574219 -6.170625 9.30398438 -7.03125 10.13671875 C-7.6809375 10.75160156 -8.330625 11.36648438 -9 12 C-9.66 11.34 -10.32 10.68 -11 10 C-10.236875 9.2575 -9.47375 8.515 -8.6875 7.75 C-6.05190726 5.18870238 -6.05190726 5.18870238 -4.375 2.75 C-3 1 -3 1 0 0 Z " fill="#E8BC3E" transform="translate(284,257)"/>
<path d="M0 0 C0.66 0.66 1.32 1.32 2 2 C-3.445 5.96 -3.445 5.96 -9 10 C-9 9.01 -9 8.02 -9 7 C-7.03125 5.17578125 -7.03125 5.17578125 -4.5 3.3125 C-3.6646875 2.68988281 -2.829375 2.06726563 -1.96875 1.42578125 C-1.3190625 0.95527344 -0.669375 0.48476562 0 0 Z " fill="#E8BC40" transform="translate(157,114)"/>
<path d="M0 0 C0.66 0.33 1.32 0.66 2 1 C0.71284028 2.64936048 -0.57987019 4.29439047 -1.875 5.9375 C-2.95394531 7.31228516 -2.95394531 7.31228516 -4.0546875 8.71484375 C-6 11 -6 11 -8 12 C-7.4091267 6.87909803 -3.48952052 3.48952052 0 0 Z " fill="#E5BF55" transform="translate(289,360)"/>
<path d="M0 0 C5.22174778 -0.31330487 8.57691041 0.11984864 13 3 C14.375 5.1875 14.375 5.1875 15 7 C13.02 6.01 11.04 5.02 9 4 C9 3.34 9 2.68 9 2 C7.329375 2.061875 7.329375 2.061875 5.625 2.125 C2 2 2 2 0 0 Z " fill="#DCB84F" transform="translate(295,289)"/>
<path d="M0 0 C2.24720649 4.49441297 2.7635529 7.034611 3 12 C2.01 12.99 1.02 13.98 0 15 C0 10.05 0 5.1 0 0 Z " fill="#E1B94A" transform="translate(135,262)"/>
<path d="M0 0 C0.66 0.33 1.32 0.66 2 1 C-1.96 6.94 -1.96 6.94 -6 13 C-7 10 -7 10 -5.8125 7.0625 C-4.11930369 4.2015821 -2.46123453 2.20662406 0 0 Z " fill="#E6BF4F" transform="translate(212,232)"/>
<path d="M0 0 C4.51617599 -0.07654536 8.59085217 -0.10228696 13 1 C12.67 1.99 12.34 2.98 12 4 C10.948125 3.67 9.89625 3.34 8.8125 3 C5.61126643 2.16033218 3.2588992 1.80249096 0 2 C0 1.34 0 0.68 0 0 Z " fill="#DFB337" transform="translate(321,124)"/>
<path d="M0 0 C0.66 0 1.32 0 2 0 C1.71943562 2.64745321 1.42614369 5.29237964 1.125 7.9375 C1.04636719 8.69224609 0.96773437 9.44699219 0.88671875 10.22460938 C0.66116192 12.15919299 0.33741026 14.08176019 0 16 C-0.66 16.33 -1.32 16.66 -2 17 C-2.08183484 12.82642318 -1.96214097 9.06237297 -1 5 C-0.814375 4.071875 -0.62875 3.14375 -0.4375 2.1875 C-0.293125 1.465625 -0.14875 0.74375 0 0 Z " fill="#E4BB4B" transform="translate(146,346)"/>
<path d="M0 0 C5.00890086 0.61512818 10.00632136 1.2717552 15 2 C15 2.33 15 2.66 15 3 C5.98468271 4.61050328 5.98468271 4.61050328 1.875 2.0625 C1.25625 1.381875 0.6375 0.70125 0 0 Z " fill="#DEBA54" transform="translate(214,442)"/>
<path d="M0 0 C0.33 0.99 0.66 1.98 1 3 C-0.43359375 5.04296875 -0.43359375 5.04296875 -2.4375 7.1875 C-3.09621094 7.90292969 -3.75492187 8.61835938 -4.43359375 9.35546875 C-4.95050781 9.89816406 -5.46742188 10.44085938 -6 11 C-6.66 10.67 -7.32 10.34 -8 10 C-5.36 6.7 -2.72 3.4 0 0 Z " fill="#E0BB53" transform="translate(312,218)"/>
<path d="M0 0 C3.63094642 2.64960955 5.89851796 5.01824456 8 9 C4.11980141 7.74155722 2.0588158 6.57583797 0 3 C0 2.01 0 1.02 0 0 Z " fill="#E1C05F" transform="translate(165,410)"/>
<path d="M0 0 C0.66 0 1.32 0 2 0 C1.68950274 1.43793392 1.3765224 2.8753318 1.0625 4.3125 C0.88847656 5.11300781 0.71445313 5.91351563 0.53515625 6.73828125 C0 9 0 9 -1 12 C-1.66 11.67 -2.32 11.34 -3 11 C-2.69078116 9.54096742 -2.37751201 8.08279278 -2.0625 6.625 C-1.88847656 5.81289062 -1.71445313 5.00078125 -1.53515625 4.1640625 C-1 2 -1 2 0 0 Z " fill="#E5BF50" transform="translate(92,194)"/>
<path d="M0 0 C1.9375 0.5 1.9375 0.5 4 2 C4.68790422 4.69658452 4.81946464 7.2017019 5 10 C2.08772731 6.71195019 0.50298788 4.40114397 0 0 Z " fill="#E7BD47" transform="translate(430,156)"/>
<path d="M0 0 C-3.97626742 1.42009551 -7.78152721 2.61650247 -12 3 C-12.66 2.34 -13.32 1.68 -14 1 C-12.23103898 0.63659714 -10.45973374 0.28459117 -8.6875 -0.0625 C-7.70136719 -0.25972656 -6.71523438 -0.45695312 -5.69921875 -0.66015625 C-3 -1 -3 -1 0 0 Z " fill="#E0B332" transform="translate(298,126)"/>
<path d="M0 0 C0.66 0.33 1.32 0.66 2 1 C2 1.66 2 2.32 2 3 C-1.96 2.67 -5.92 2.34 -10 2 C-5.98936074 -0.00531963 -4.32816129 -0.28227139 0 0 Z " fill="#E8C04A" transform="translate(277,166)"/>
<path d="M0 0 C3 2 3 2 3.6875 5.125 C3.790625 6.07375 3.89375 7.0225 4 8 C2.35 6.68 0.7 5.36 -1 4 C-0.67 2.68 -0.34 1.36 0 0 Z " fill="#E9BF47" transform="translate(415,134)"/>
<path d="M0 0 C0.66 0 1.32 0 2 0 C2 0.66 2 1.32 2 2 C3.32 2.66 4.64 3.32 6 4 C5.67 5.32 5.34 6.64 5 8 C0 2.25 0 2.25 0 0 Z " fill="#E7BF4C" transform="translate(312,188)"/>
<path d="M0 0 C-3.72965139 2.03435531 -5.66905042 3 -10 3 C-10 2.34 -10 1.68 -10 1 C-3.375 -1.125 -3.375 -1.125 0 0 Z " fill="#E8BF49" transform="translate(199,97)"/>
<path d="M0 0 C0.99 1.32 1.98 2.64 3 4 C2.34 5.32 1.68 6.64 1 8 C-1 5 -1 5 -0.625 2.3125 C-0.41875 1.549375 -0.2125 0.78625 0 0 Z " fill="#E5BF52" transform="translate(92,266)"/>
<path d="M0 0 C5.75 0.75 5.75 0.75 8 3 C6.68 3 5.36 3 4 3 C3.67 3.66 3.34 4.32 3 5 C3 4.34 3 3.68 3 3 C2.34 2.67 1.68 2.34 1 2 C0.67 1.34 0.34 0.68 0 0 Z " fill="#E0B842" transform="translate(342,128)"/>
</svg>